<svg width="88" height="35" viewBox="0 0 88 35" fill="none" xmlns="http://www.w3.org/2000/svg">
<path d="M38.332 9.632C37.8113 9.632 37.331 9.53667 36.891 9.346C36.4583 9.148 36.1027 8.86933 35.824 8.51L36.814 7.322C37.232 7.88667 37.7087 8.169 38.244 8.169C38.97 8.169 39.333 7.74367 39.333 6.893V3.23H36.627V1.8H41.104V6.794C41.104 7.74 40.8693 8.45133 40.4 8.928C39.9307 9.39733 39.2413 9.632 38.332 9.632ZM48.2852 9.632C47.1852 9.632 46.3272 9.32767 45.7112 8.719C45.1025 8.11033 44.7982 7.24133 44.7982 6.112V1.8H46.5802V6.046C46.5802 7.42467 47.1522 8.114 48.2962 8.114C48.8535 8.114 49.2788 7.949 49.5722 7.619C49.8655 7.28167 50.0122 6.75733 50.0122 6.046V1.8H51.7722V6.112C51.7722 7.24133 51.4642 8.11033 50.8482 8.719C50.2395 9.32767 49.3852 9.632 48.2852 9.632ZM55.5331 1.8H57.3151V8.048H61.1761V9.5H55.5331V1.8ZM64.1718 1.8H65.9538V9.5H64.1718V1.8ZM75.7432 8.07V9.5H69.7812V1.8H75.6002V3.23H71.5522V4.902H75.1272V6.288H71.5522V8.07H75.7432Z" fill="white"/>
<path d="M22.576 13.37C23.0973 13.37 23.358 13.6987 23.358 14.356C23.358 15.0587 23.0747 15.716 22.508 16.328C21.5107 17.4387 20.5927 18.8327 19.754 20.51C18.4847 23.0487 17.85 25.338 17.85 27.378C17.85 28.1713 17.986 28.7493 18.258 29.112C18.5527 29.4747 18.8813 29.656 19.244 29.656C20.332 29.656 21.6013 28.772 23.052 27.004C24.344 25.3493 25.33 23.74 26.01 22.176C26.1913 21.8133 26.3727 21.6547 26.554 21.7C26.7353 21.7453 26.7467 21.9493 26.588 22.312C25.6587 24.3747 24.6047 26.188 23.426 27.752C22.814 28.5907 22.0547 29.282 21.148 29.826C20.2413 30.3927 19.3347 30.676 18.428 30.676C17.544 30.676 16.8753 30.3133 16.422 29.588C15.9687 28.8853 15.742 28.0467 15.742 27.072C15.742 26.0973 15.8553 25.134 16.082 24.182C16.3313 23.23 16.6487 22.4933 17.034 21.972C14.7447 24.7147 12.308 26.9133 9.724 28.568C8.364 29.4067 6.85667 29.9053 5.202 30.064C5.04333 30.0867 4.77133 30.098 4.386 30.098C4.02333 30.098 3.58133 29.962 3.06 29.69C1.428 29.01 0.612 27.3553 0.612 24.726C0.612 22.074 1.47333 19.2067 3.196 16.124C4.10267 14.492 5.1 13.0527 6.188 11.806C4.66933 11.0807 3.536 10.2987 2.788 9.46C2.244 8.848 1.972 8.11133 1.972 7.25C1.972 6.38867 2.142 5.84467 2.482 5.618C2.70867 5.32333 2.91267 5.26667 3.094 5.448C3.23 5.652 3.23 5.90133 3.094 6.196C2.98067 6.49067 2.924 6.774 2.924 7.046C2.924 7.658 3.25267 8.338 3.91 9.086C4.56733 9.834 5.53067 10.5027 6.8 11.092C12.1267 5.176 17.6573 2.218 23.392 2.218C25.1827 2.218 26.5993 2.626 27.642 3.442C28.7073 4.23533 29.24 5.26667 29.24 6.536C29.24 7.91867 28.4693 9.256 26.928 10.548C26.1573 11.228 25.058 11.8173 23.63 12.316C21.454 13.0867 18.8587 13.472 15.844 13.472C12.852 13.472 10.37 13.1547 8.398 12.52C6.10867 15.7613 4.53333 18.4587 3.672 20.612C2.81067 22.7427 2.38 24.3973 2.38 25.576C2.38 25.8253 2.39133 26.052 2.414 26.256C2.686 28.1373 3.638 29.078 5.27 29.078C7.106 29.078 9.23667 28.0807 11.662 26.086C13.3847 24.6353 15.0733 22.9127 16.728 20.918C18.3827 18.9233 19.6067 17.1667 20.4 15.648C21.216 14.1293 21.9413 13.37 22.576 13.37ZM27.846 6.128C27.846 5.15333 27.438 4.40533 26.622 3.884C25.8287 3.36267 24.7293 3.102 23.324 3.102C21.9187 3.102 20.5133 3.32867 19.108 3.782C17.7253 4.23533 16.422 4.904 15.198 5.788C13.9967 6.672 12.92 7.57867 11.968 8.508C11.0387 9.43733 10.03 10.548 8.942 11.84C10.642 12.384 12.7273 12.656 15.198 12.656C19.8447 12.656 23.2333 11.908 25.364 10.412C27.0187 9.256 27.846 7.828 27.846 6.128ZM30.7331 14.866C30.7331 15.886 30.0871 16.8493 28.7951 17.756C29.2484 17.7787 29.8491 17.79 30.5971 17.79C31.3677 17.79 32.3311 17.7333 33.4871 17.62C33.5324 17.688 33.5551 17.8693 33.5551 18.164C33.5551 18.4587 33.4191 18.9007 33.1471 19.49C32.8751 20.0567 32.6257 20.5553 32.3991 20.986C32.1951 21.394 31.9911 21.7907 31.7871 22.176C31.6057 22.5387 31.3904 22.992 31.1411 23.536C30.9144 24.08 30.7217 24.5787 30.5631 25.032C29.9964 26.7547 30.0871 27.616 30.8351 27.616C31.7871 27.616 33.1924 25.7233 35.0511 21.938C35.2097 21.6433 35.3344 21.53 35.4251 21.598C35.5384 21.666 35.5951 21.7567 35.5951 21.87C35.5951 21.9607 35.4477 22.312 35.1531 22.924C34.8584 23.5133 34.5411 24.1253 34.2011 24.76C33.8611 25.3947 33.3284 26.1313 32.6031 26.97C31.7417 28.0127 30.9144 28.534 30.1211 28.534C29.2371 28.534 28.6251 28.0013 28.2851 26.936C28.2171 26.732 28.1831 26.426 28.1831 26.018C28.1831 25.61 28.3077 25.066 28.5571 24.386C28.8291 23.706 29.2484 22.8787 29.8151 21.904C30.3817 20.9293 30.6991 20.3627 30.7671 20.204C30.8351 20.0227 30.8691 19.8527 30.8691 19.694C30.8691 18.9913 29.9624 18.6173 28.1491 18.572L27.7411 19.66C26.3131 23.4 24.9417 25.9047 23.6271 27.174C23.4004 27.378 23.2871 27.31 23.2871 26.97C23.2871 26.902 23.3097 26.8227 23.3551 26.732C24.6244 25.0547 25.7237 23.0713 26.6531 20.782C27.5824 18.4927 28.2284 16.3167 28.5911 14.254C28.7271 13.5513 29.0444 13.2 29.5431 13.2C30.0417 13.2 30.4044 13.5173 30.6311 14.152C30.6991 14.356 30.7331 14.594 30.7331 14.866ZM45.2431 17.348C42.4551 22.244 41.0611 25.44 41.0611 26.936C41.0611 27.5253 41.2764 27.82 41.7071 27.82C42.8631 27.82 44.4158 25.8593 46.3651 21.938C46.5011 21.6207 46.6371 21.496 46.7731 21.564C46.9091 21.632 46.9771 21.7227 46.9771 21.836C46.9771 21.9493 46.9318 22.0853 46.8411 22.244C45.6398 24.6693 44.6198 26.3467 43.7811 27.276C42.9651 28.1827 42.1378 28.636 41.2991 28.636C40.4831 28.636 39.8598 28.3187 39.4291 27.684C39.2024 27.3893 39.0891 26.9927 39.0891 26.494C39.0891 25.9727 39.2024 25.3493 39.4291 24.624C39.6558 23.8987 40.2791 22.72 41.2991 21.088C41.5484 20.68 41.6731 20.3627 41.6731 20.136C41.6731 19.8867 41.4804 19.762 41.0951 19.762C40.7098 19.762 39.9731 20.272 38.8851 21.292C37.2531 22.788 35.6778 25.032 34.1591 28.024C34.0231 28.2507 33.8644 28.398 33.6831 28.466C33.5244 28.5113 33.1958 28.5453 32.6971 28.568C32.1984 28.5907 31.8698 28.6473 31.7111 28.738C32.0738 28.0127 32.7878 26.528 33.8531 24.284C35.7571 20.3173 37.0038 18.0507 37.5931 17.484C37.8651 17.212 38.2391 17.076 38.7151 17.076C38.8058 17.076 39.0324 17.11 39.3951 17.178C39.7804 17.246 40.0638 17.2573 40.2451 17.212C39.4064 17.6653 38.0351 19.796 36.1311 23.604C37.1964 22.2893 38.1598 21.2467 39.0211 20.476C39.9051 19.6827 40.9591 18.9573 42.1831 18.3C43.4071 17.62 44.3024 17.28 44.8691 17.28C45.0051 17.28 45.1298 17.3027 45.2431 17.348ZM56.6998 19.286C56.2918 19.694 55.7138 20.6233 54.9658 22.074C54.2178 23.502 53.7644 24.5787 53.6058 25.304C53.4698 26.0067 53.4018 26.5847 53.4018 27.038C53.4018 27.4687 53.5718 27.684 53.9118 27.684C54.3424 27.684 54.8751 27.2873 55.5098 26.494C56.4391 25.338 57.3571 23.8307 58.2638 21.972C58.3544 21.768 58.4564 21.6547 58.5698 21.632C58.7511 21.564 58.8418 21.632 58.8418 21.836C58.8418 21.9493 58.8078 22.0853 58.7398 22.244C56.6544 26.46 54.8978 28.568 53.4698 28.568C52.8124 28.568 52.2798 28.2507 51.8718 27.616C51.6678 27.276 51.5658 26.8227 51.5658 26.256C51.5658 25.6893 51.6791 24.998 51.9058 24.182C50.0924 27.106 48.5284 28.568 47.2138 28.568C46.8511 28.568 46.5224 28.4547 46.2278 28.228C45.5478 27.752 45.2078 26.936 45.2078 25.78C45.2078 23.5587 46.1711 21.3033 48.0978 19.014C49.1858 17.7447 50.5231 16.9173 52.1098 16.532C52.5404 16.4187 52.9484 16.362 53.3338 16.362C54.3764 16.362 55.2604 16.7247 55.9858 17.45C56.2124 17.6993 56.2804 17.9373 56.1898 18.164C56.0991 18.3907 55.9064 18.4813 55.6118 18.436C55.3624 17.62 54.8184 17.212 53.9798 17.212C53.0051 17.212 51.8038 17.9827 50.3758 19.524C49.5598 20.4307 48.8004 21.496 48.0978 22.72C47.2138 24.1933 46.7718 25.372 46.7718 26.256C46.7718 27.14 47.0551 27.582 47.6218 27.582C48.9818 27.582 50.7611 25.4967 52.9598 21.326C53.3904 20.4873 53.7531 19.9207 54.0478 19.626C54.3424 19.3087 54.7164 19.15 55.1698 19.15C55.2604 19.15 55.4871 19.184 55.8498 19.252C56.2351 19.32 56.5184 19.3313 56.6998 19.286ZM57.0605 26.528C57.0605 25.5533 57.4798 24.3747 58.3185 22.992C57.9558 22.992 57.8538 22.8107 58.0125 22.448L58.6245 21.258C59.3952 19.7847 60.0298 18.538 60.5285 17.518C60.7552 17.042 61.1972 16.804 61.8545 16.804H63.9285C63.1125 17.3933 62.2852 18.538 61.4465 20.238C60.6305 21.9153 59.9958 23.2413 59.5425 24.216C59.0892 25.168 58.8625 25.8933 58.8625 26.392C58.8625 26.8907 58.9418 27.242 59.1005 27.446C59.2818 27.65 59.5198 27.752 59.8145 27.752C60.2452 27.752 60.8458 27.2987 61.6165 26.392C62.8178 24.9867 64.5065 22.0287 66.6825 17.518C66.9318 17.042 67.3738 16.804 68.0085 16.804H69.8445C69.3458 17.1893 68.9492 17.586 68.6545 17.994C68.3825 18.402 67.9972 19.1273 67.4985 20.17C66.1385 22.89 65.3792 24.692 65.2205 25.576C65.1525 25.8933 65.1185 26.188 65.1185 26.46C65.1185 27.1853 65.3678 27.5707 65.8665 27.616C67.0905 27.616 68.5978 25.7233 70.3885 21.938C70.5245 21.6207 70.6605 21.496 70.7965 21.564C70.9325 21.632 71.0005 21.7227 71.0005 21.836C71.0005 21.9493 70.8985 22.21 70.6945 22.618C70.4905 23.026 70.2865 23.4227 70.0825 23.808C69.9012 24.1933 69.6065 24.726 69.1985 25.406C68.8132 26.0633 68.4505 26.5847 68.1105 26.97C67.2265 27.9673 66.3538 28.466 65.4925 28.466C64.6538 28.466 64.0758 28.092 63.7585 27.344C63.6225 27.004 63.5545 26.5733 63.5545 26.052C63.5545 25.5307 63.6678 24.8847 63.8945 24.114C62.2398 27.0153 60.7098 28.466 59.3045 28.466C58.0805 28.466 57.3665 27.956 57.1625 26.936C57.0945 26.8227 57.0605 26.6867 57.0605 26.528ZM77.5768 26.528C77.5768 27.2533 77.8715 27.616 78.4608 27.616C79.5262 27.616 80.9428 25.8367 82.7108 22.278C82.7788 22.142 82.8355 22.006 82.8808 21.87C82.9488 21.734 83.0395 21.6433 83.1528 21.598C83.2888 21.5527 83.3795 21.5867 83.4248 21.7C83.4702 21.7907 83.4475 21.9493 83.3568 22.176C81.5435 26.392 79.7075 28.5 77.8488 28.5C77.2368 28.5 76.7495 28.228 76.3868 27.684C76.0242 27.14 75.8428 26.6073 75.8428 26.086C75.8428 25.542 75.8995 25.0433 76.0128 24.59C74.6982 26.766 73.5648 28.0013 72.6128 28.296C72.3408 28.4093 72.0688 28.466 71.7968 28.466C71.5475 28.466 71.2982 28.432 71.0488 28.364C69.9382 28.0693 69.3828 27.1853 69.3828 25.712C69.3828 24.7147 69.6322 23.6153 70.1308 22.414C70.6522 21.19 71.3775 20.0227 72.3068 18.912C73.2362 17.8013 74.3582 17.0533 75.6728 16.668C76.1488 16.5093 76.7042 16.43 77.3388 16.43C77.9962 16.43 78.7215 16.634 79.5148 17.042C81.0562 14.1407 82.3708 11.4547 83.4588 8.984C83.7762 8.236 84.0822 7.76 84.3768 7.556C84.6942 7.32933 84.9775 7.216 85.2268 7.216C85.4988 7.216 85.6575 7.216 85.7028 7.216C85.7708 7.216 85.9862 7.25 86.3488 7.318C86.7342 7.36333 87.0288 7.37467 87.2328 7.352C86.7115 7.828 85.3288 10.14 83.0848 14.288C80.2288 19.592 78.5062 23.128 77.9168 24.896C77.6902 25.5533 77.5768 26.0973 77.5768 26.528ZM79.2428 17.586C78.9482 17.2913 78.5288 17.144 77.9848 17.144C77.4635 17.144 76.7268 17.5407 75.7748 18.334C74.2562 19.6033 72.9982 21.1673 72.0008 23.026C71.3435 24.25 71.0148 25.2587 71.0148 26.052C71.0148 26.4147 71.0828 26.7433 71.2188 27.038C71.3775 27.3327 71.6155 27.48 71.9328 27.48C72.7035 27.48 73.6555 26.6867 74.7888 25.1C75.9222 23.5133 77.4068 21.0087 79.2428 17.586Z" fill="white"/>
</svg>
