<svg width="124" height="70" viewBox="0 0 124 70" fill="none" xmlns="http://www.w3.org/2000/svg">
<path d="M88.1297 25.4463C88.4015 24.3094 87.8487 23.2486 87.2729 22.3886C86.6389 21.4419 85.5796 20.6024 84.3963 20.3C84.6107 21.373 85.2363 22.2987 85.8388 23.1692C86.4371 24.0339 87.1916 24.9098 88.1297 25.4463Z" fill="white"/>
<path d="M37.2753 22.3874C36.6984 23.2469 36.1445 24.3073 36.4156 25.4444C37.3541 24.9087 38.1096 24.0334 38.7087 23.1691C39.3118 22.2991 39.9384 21.3738 40.1534 20.301C38.97 20.6026 37.9104 21.4413 37.2753 22.3874Z" fill="white"/>
<path d="M35.59 27.6256C35.8017 26.7251 35.797 25.7393 35.5955 24.8947C35.4183 24.1524 35.1605 23.1031 34.312 22.749C33.6952 23.7376 33.4473 25.0837 33.8068 26.0924C34.0667 26.8221 34.5341 27.7867 35.5034 27.936C36.3929 28.1409 37.2924 27.6668 38.0028 27.2754C38.7926 26.8402 39.5663 26.1478 40.0364 25.3247C39.1741 24.8898 38.192 25.2427 37.4532 25.581C36.6568 25.9456 35.9252 26.7279 35.59 27.6256Z" fill="white"/>
<path d="M52.8528 23.9697V28.4908H51.308V26.8494H48.9909V28.4908H47.4462V23.9697H48.9909V25.6169H51.308V23.9697H52.8528Z" fill="white"/>
<path d="M57.975 23.9697H59.6811L57.2603 26.9991V28.4908H55.7098V27.0049L53.3178 23.9697H55.0758L56.5052 25.7781L57.975 23.9697Z" fill="white"/>
<path fill-rule="evenodd" clip-rule="evenodd" d="M65.5394 25.5996C65.5394 25.0064 65.3665 24.5975 65.061 24.3556C64.7671 24.0964 64.2944 23.9697 63.6719 23.9697H60.1617V28.4908H61.7122V27.2237C61.7122 27.2237 63.4875 27.2295 63.695 27.2237C64.3636 27.2179 64.8766 27.0567 65.1878 26.6997C65.4184 26.4462 65.5394 26.0834 65.5394 25.5996ZM63.9832 25.6226C63.9832 25.7666 63.9602 25.8703 63.914 25.9509C63.8218 26.0949 63.6316 26.1698 63.3088 26.1698H61.7007V25.064H63.3203C63.62 25.064 63.8045 25.1331 63.9025 25.2771C63.9543 25.3462 63.9832 25.4729 63.9832 25.6226Z" fill="white"/>
<path d="M70.9231 27.3677V28.4908H66.1565V23.9697H70.8832V25.0985H67.6781V25.6802H70.7907V26.7802H67.6781V27.3677H70.9231Z" fill="white"/>
<path fill-rule="evenodd" clip-rule="evenodd" d="M77.0159 25.3462C77.0159 24.9373 76.9186 24.6435 76.7105 24.4305C76.4401 24.1425 75.9728 23.9697 75.2582 23.9697H71.6559V28.4908H73.195V26.8954H74.5955L75.7192 28.4908H77.437L76.0709 26.6478C76.3763 26.6017 76.6243 26.4174 76.7854 26.1986C76.9298 25.997 77.0159 25.6975 77.0159 25.3462ZM75.5174 25.4902C75.5174 25.565 75.5062 25.6572 75.4656 25.7263C75.4081 25.8415 75.2582 25.8876 75.0102 25.8876H73.2006V25.064H74.9815C75.2239 25.064 75.385 25.1043 75.4656 25.254C75.5062 25.3116 75.5174 25.4038 75.5174 25.4902Z" fill="white"/>
<path d="M70.0978 34.1611C70.0978 33.1277 69.4407 32.5846 67.9081 32.4186C67.659 32.3885 66.9267 32.313 66.4662 32.2753C65.2809 32.147 64.9261 32.0792 64.9261 31.7774C64.9261 31.5059 65.2054 31.3777 66.2699 31.3777C67.0249 31.3777 67.4477 31.5209 67.6137 31.7397C67.6968 31.8453 67.727 31.9283 67.7345 32.0113H69.9088C69.8861 31.8302 69.8107 31.5737 69.6898 31.3475C69.2973 30.5931 68.3536 29.9896 66.3228 29.9896C64.0352 29.9896 62.7821 30.7968 62.7821 31.8529C62.7821 32.8712 63.4917 33.4672 65.4092 33.6407C65.6305 33.6596 66.1111 33.705 66.4965 33.7414L66.5008 33.7418L66.5025 33.742L66.7078 33.7614C67.7118 33.867 67.9837 33.9348 67.9837 34.2517C67.9837 34.5459 67.7194 34.7043 66.6097 34.7043C65.749 34.7043 65.2432 34.576 65.062 34.3573C64.9865 34.2668 64.9336 34.131 64.9186 34.0405H62.7443C62.7669 34.1913 62.8047 34.4327 62.8877 34.6289C63.2577 35.4586 64.224 36.0923 66.4662 36.0923C68.8745 36.0923 70.0978 35.4134 70.0978 34.1611Z" fill="white"/>
<path fill-rule="evenodd" clip-rule="evenodd" d="M55.0237 34.3272C55.0237 34.7345 54.9104 35.1344 54.6839 35.3984C54.3367 35.8208 53.6874 36.0019 52.8494 36.0019H47.5873V30.0802H52.706C53.5213 30.0802 54.0422 30.2763 54.3291 30.5706C54.5858 30.827 54.699 31.1665 54.699 31.5512C54.699 31.9359 54.6084 32.2527 54.4121 32.4866C54.2536 32.6827 53.9818 32.8336 53.695 32.8713C54.1177 32.9241 54.5178 33.1353 54.7443 33.4295C54.9331 33.6483 55.0237 33.9802 55.0237 34.3272ZM52.4795 32.2527C52.5549 32.1698 52.6002 32.0491 52.6002 31.9057C52.6002 31.7624 52.5549 31.6417 52.4568 31.5587C52.3511 31.4607 52.1548 31.4229 51.8679 31.4229H49.5653V32.3885H51.9208C52.1774 32.3885 52.3737 32.3508 52.4795 32.2527ZM52.1397 34.6591C52.4945 34.6591 52.706 34.6138 52.8267 34.5007C52.9022 34.4253 52.9324 34.3121 52.9324 34.1688C52.9324 34.0179 52.8947 33.9047 52.804 33.8142C52.6908 33.7162 52.4945 33.6709 52.1624 33.6709H49.5653V34.6591H52.1397Z" fill="white"/>
<path d="M62.1323 34.5309V36.0019H55.8889V30.0802H62.0795V31.5587H57.8819V32.3206H61.9587V33.7614H57.8819V34.5309H62.1323Z" fill="white"/>
<path d="M77.444 30.0802V31.5663H74.9373V36.0019H72.8693V31.5663H70.3704V30.0802H77.444Z" fill="white"/>
<path d="M77.2646 41.2197V41.2417H76.9318L76.908 40.9216C76.8064 41.0837 76.5914 41.2782 76.1374 41.2782C75.3703 41.2782 75.0137 40.8161 75.0137 39.6366C75.0137 38.7247 75.2407 37.9911 76.1773 37.9911C76.9893 37.9911 77.2366 38.522 77.2485 39.0935H76.8429C76.8309 38.7206 76.6642 38.3761 76.1857 38.3761C75.6099 38.3761 75.4431 38.7206 75.4431 39.6488C75.4431 40.6176 75.6505 40.9216 76.1941 40.9216C76.5752 40.9216 76.798 40.7108 76.8716 40.4595V39.8555H76.0519V39.4867H77.2604V40.419C77.2604 40.7539 77.2639 41.1159 77.2646 41.2154V41.218V41.2197Z" fill="white"/>
<path fill-rule="evenodd" clip-rule="evenodd" d="M48.7999 40.4351H47.6641L47.4207 41.2417H46.9947L48.0008 38.0316H48.5241L49.4652 41.2417H49.0352L48.7999 40.4351ZM47.7736 40.0744H48.6985C48.6985 40.0744 48.3213 38.7693 48.3172 38.749L48.2972 38.6538L48.2523 38.441C48.2523 38.441 48.1874 38.7287 48.1833 38.749C48.1752 38.7774 47.7736 40.0744 47.7736 40.0744Z" fill="white"/>
<path d="M52.5441 38.0316H52.9336L52.175 41.2417H51.6922C51.6922 41.2417 51.1527 38.745 51.1527 38.6396C51.1487 38.745 50.597 41.2417 50.597 41.2417H50.1143L49.3557 38.0316H49.7938C49.7938 38.0316 50.382 40.573 50.382 40.6743C50.382 40.573 50.9215 38.0316 50.9215 38.0316H51.4042C51.4042 38.0316 51.9437 40.577 51.9437 40.6743C51.9437 40.577 52.5441 38.0316 52.5441 38.0316Z" fill="white"/>
<path fill-rule="evenodd" clip-rule="evenodd" d="M53.4636 40.4351H54.5994L54.8348 41.2417H55.2648L54.3236 38.0316H53.8003L52.7943 41.2417H53.2203L53.4636 40.4351ZM54.4981 40.0744H53.5732C53.5732 40.0744 53.9747 38.7774 53.9829 38.749C53.9869 38.7287 54.0518 38.441 54.0518 38.441L54.0861 38.603L54.1168 38.749C54.1208 38.7693 54.4981 40.0744 54.4981 40.0744Z" fill="white"/>
<path fill-rule="evenodd" clip-rule="evenodd" d="M56.8277 38.0316C57.3226 38.0316 57.5903 38.2626 57.5903 38.9355C57.5903 39.507 57.3753 39.6975 57.1522 39.7623L57.7688 41.2417H57.3226L56.7506 39.8434H55.9718V41.2417H55.5661V38.0316H56.8277ZM56.7669 39.4786C57.0873 39.4786 57.1644 39.3124 57.1644 38.9476C57.1644 38.5342 57.0427 38.4086 56.7466 38.4086H55.9758V39.4786H56.7669Z" fill="white"/>
<path fill-rule="evenodd" clip-rule="evenodd" d="M60.0721 40.881C60.2343 40.65 60.2911 40.342 60.2911 39.584C60.2911 38.899 60.2425 38.6072 60.0802 38.3721C59.9342 38.1532 59.6178 38.0316 59.2121 38.0316H58.1371V41.2417H59.2404C59.6543 41.2417 59.9098 41.104 60.0721 40.881ZM59.7151 40.654C59.6097 40.7959 59.4028 40.8607 59.1553 40.8607H58.5468V38.4166H59.1472C59.3946 38.4166 59.6056 38.4815 59.7151 38.6314C59.8327 38.8057 59.8612 39.0773 59.8612 39.584C59.8612 40.1879 59.8287 40.5 59.7151 40.654Z" fill="white"/>
<path d="M64.5711 38.0316H64.9605L64.2019 41.2417H63.7192C63.7192 41.2417 63.1797 38.745 63.1797 38.6396C63.1756 38.745 62.6239 41.2417 62.6239 41.2417H62.1412L61.3827 38.0316H61.8207C61.8207 38.0316 62.4089 40.573 62.4089 40.6743C62.4089 40.573 62.9484 38.0316 62.9484 38.0316H63.4312C63.4312 38.0316 63.9707 40.577 63.9707 40.6743C63.9707 40.577 64.5711 38.0316 64.5711 38.0316Z" fill="white"/>
<path d="M65.6774 41.2417V38.0316H65.2559V41.2417H65.6774Z" fill="white"/>
<path d="M68.3187 38.0316V41.2417H67.8522L66.6555 38.753V41.2417H66.262V38.0316H66.7529L67.9212 40.4838V38.0316H68.3187Z" fill="white"/>
<path d="M70.949 41.2417V38.0316H70.5518V40.4838L69.3833 38.0316H68.8925V41.2417H69.286V38.753L70.4824 41.2417H70.949Z" fill="white"/>
<path d="M71.9442 38.0316V41.2417H71.5228V38.0316H71.9442Z" fill="white"/>
<path d="M74.5857 41.2417V38.0316H74.1885V40.4838L73.0199 38.0316H72.5288V41.2417H72.9225V38.753L74.1191 41.2417H74.5857Z" fill="white"/>
<path d="M52.2308 47.5687L51.766 46.1392L51.3011 47.5687H49.7968L51.0138 48.4523L50.549 49.8818L51.766 48.9983L52.983 49.8818L52.5181 48.4523L53.7351 47.5687H52.2308Z" fill="white"/>
<path d="M57.1323 46.1394L57.6066 47.5689H59.1416L57.8998 48.4524L58.3742 49.8819L57.1323 48.9985L55.8905 49.8819L56.3648 48.4524L55.1229 47.5689H56.6579L57.1323 46.1394Z" fill="white"/>
<path d="M62.931 47.5689L62.4566 46.1394L61.9823 47.5689H60.4473L61.6891 48.4524L61.2147 49.8819L62.4566 48.9985L63.6984 49.8819L63.2241 48.4524L64.466 47.5689H62.931Z" fill="white"/>
<path d="M67.7808 46.1394L68.2552 47.5689H69.7902L68.5483 48.4524L69.0227 49.8819L67.7808 48.9985L66.539 49.8819L67.0133 48.4524L65.7715 47.5689H67.3065L67.7808 46.1394Z" fill="white"/>
<path d="M73.6119 47.5689L73.1474 46.1394L72.6822 47.5689H71.1781L72.395 48.4524L71.9305 49.8819L73.1474 48.9985L74.3643 49.8819L73.8991 48.4524L75.1167 47.5689H73.6119Z" fill="white"/>
<path d="M34.9524 31.5338C33.9654 31.5576 33.2885 30.7224 32.8511 30.0556C32.2742 29.1764 32.1598 27.8487 32.5183 26.7637C33.4284 26.9521 33.9385 27.8947 34.3045 28.5921C34.7049 29.3549 34.9532 30.3018 34.9617 31.2186C35.0748 30.3034 35.6011 29.4122 36.2855 28.9252C36.9409 28.4589 37.8197 27.9646 38.7377 28.2314C38.4871 29.1012 37.8935 29.9057 37.2359 30.4558C36.6253 30.9666 35.8499 31.5786 34.9524 31.5338Z" fill="white"/>
<path d="M35.2444 35.1252C34.3284 35.2786 33.4349 34.7178 32.8546 34.0582C32.1075 33.209 31.663 32.0697 31.7537 30.9292C32.6947 30.9531 33.4074 31.7658 33.9341 32.3804C34.5014 33.0424 34.9663 33.9132 35.1892 34.8116C35.0912 33.9163 35.392 32.9495 35.9504 32.3522C36.4894 31.7755 37.2445 31.147 38.1839 31.2479C38.1637 32.1557 37.7083 33.0207 37.2385 33.6684C36.8007 34.2721 36.1262 35.0188 35.2444 35.1252Z" fill="white"/>
<path d="M36.4943 38.8228C35.419 39.2339 34.3958 38.6907 33.5522 38.1419C32.5032 37.4595 31.7223 36.1331 31.5254 34.8545C32.5604 34.7261 33.588 35.409 34.3014 36.0573C35.0862 36.7704 35.827 37.5422 36.3336 38.4961C35.9908 37.5689 36.0764 36.5162 36.5227 35.6319C36.9496 34.7859 37.7534 34.0929 38.7228 34.007C38.8918 34.9514 38.6477 35.9464 38.2823 36.8093C37.9373 37.6237 37.3765 38.5109 36.4943 38.8228Z" fill="white"/>
<path d="M38.6672 42.2792C39.4974 41.7833 39.8315 40.7399 39.9681 39.8458C40.1152 38.8815 40.1089 37.8181 39.7081 36.9033C38.745 37.1721 38.0839 38.0383 37.8656 38.987C37.635 39.9893 37.8296 41.0576 38.3906 41.9111C37.6448 41.0561 36.6532 40.3503 35.7029 39.8553C34.7849 39.3772 33.6588 38.8005 32.5564 39.1488C33.088 40.4451 34.2251 41.6521 35.4854 42.1513C36.4615 42.5378 37.6488 42.9201 38.6672 42.2792Z" fill="white"/>
<path d="M41.9981 45.4423C42.7213 44.7259 42.7247 43.5454 42.6029 42.6147C42.4661 41.5694 42.1599 40.4684 41.506 39.6108C40.5694 40.0885 40.1341 41.1604 40.161 42.1624C40.1909 43.2827 40.802 44.3942 41.6407 45.1514C40.5897 44.4054 39.3331 43.8594 38.1538 43.5204L38.0935 43.5031C37.037 43.1991 35.732 42.8235 34.6649 43.4106C35.5386 44.7247 37.1688 45.7116 38.617 45.9849C39.6957 46.1882 41.0944 46.3666 41.9981 45.4423Z" fill="white"/>
<path d="M46.8001 48.0777C47.3326 47.0647 46.805 45.8758 46.3845 44.9971C45.8874 43.9583 45.2082 42.8996 44.2361 42.1393C43.3028 42.943 43.3915 44.0931 43.669 45.0925C43.999 46.2809 45.1429 47.2939 46.3275 47.8712C44.9556 47.36 43.4573 47.0532 42.0318 46.9626L41.8874 46.9533C40.7422 46.8788 39.2513 46.7818 38.3388 47.6192C39.7185 48.7912 41.6784 49.4674 43.4057 49.4322C44.5632 49.4087 46.1514 49.2719 46.8001 48.0777Z" fill="white"/>
<path d="M87.0922 25.5818C87.888 25.9472 88.6194 26.7305 88.9536 27.6288C88.7427 26.7279 88.7483 25.7417 88.9508 24.8969C89.128 24.1547 89.3872 23.1056 90.2363 22.7521C90.8521 23.7412 91.0987 25.0877 90.7379 26.0959C90.4773 26.8255 90.0086 27.79 89.039 27.9384C88.1493 28.1424 87.2505 27.6677 86.5408 27.2758C85.7513 26.84 84.9785 26.1471 84.5092 25.3236C85.3716 24.8895 86.3531 25.243 87.0922 25.5818Z" fill="white"/>
<path d="M88.2565 28.9271C88.9403 29.4143 89.465 30.305 89.5778 31.2195C89.5876 30.3032 89.837 29.3572 90.2377 28.5952C90.6041 27.8981 91.1155 26.9559 92.0255 26.7681C92.3828 27.8535 92.2672 29.181 91.6893 30.0597C91.2521 30.7254 90.5754 31.5589 89.5904 31.5365C88.6916 31.5824 87.9153 30.9689 87.3044 30.4571C86.6473 29.9064 86.0546 29.1014 85.8052 28.2316C86.723 27.9653 87.6015 28.4603 88.2565 28.9271Z" fill="white"/>
<path d="M88.5878 32.3542C89.1469 32.9528 89.4467 33.9216 89.3466 34.8176C89.57 33.9182 90.0359 33.0463 90.6048 32.384C91.1323 31.7698 91.8454 30.9577 92.787 30.9344C92.876 32.0751 92.4304 33.214 91.6829 34.0626C91.1014 34.7221 90.2068 35.2826 89.2905 35.1276C88.4092 35.02 87.736 34.2733 87.2988 33.6696C86.8294 33.0214 86.3748 32.1561 86.3559 31.2483C87.2953 31.1481 88.0498 31.7771 88.5878 32.3542Z" fill="white"/>
<path d="M88.0127 35.6335C88.4582 36.5184 88.543 37.5713 88.199 38.4982C88.7063 37.5445 89.4481 36.7732 90.2335 36.0605C90.9474 35.4127 91.9758 34.7307 93.0105 34.8598C92.813 36.1383 92.0304 37.4642 90.981 38.1457C90.1375 38.6931 89.1154 39.2352 88.0414 38.8258C87.158 38.5145 86.5968 37.6254 86.2522 36.8096C85.8872 35.9464 85.6441 34.9513 85.8143 34.007C86.7832 34.0937 87.5867 34.7873 88.0127 35.6335Z" fill="white"/>
<path d="M86.6669 38.9877C86.896 39.9895 86.7005 41.0568 86.14 41.9094C86.8862 41.0559 87.8782 40.3514 88.8281 39.8574C89.7466 39.38 90.8731 38.8042 91.9751 39.1532C91.4427 40.4492 90.3042 41.6553 89.0432 42.1537C88.0659 42.5401 86.8756 42.9221 85.8563 42.2762C85.031 41.7785 84.699 40.7371 84.5631 39.8448C84.4174 38.8803 84.4244 37.8169 84.8258 36.9026C85.7891 37.1721 86.4497 38.0388 86.6669 38.9877Z" fill="white"/>
<path d="M81.9254 42.612C81.8028 43.5425 81.8049 44.7229 82.5279 45.4399C83.4303 46.3649 84.8293 46.1875 85.9082 45.9849C87.3569 45.7128 88.9879 44.7269 89.8629 43.4136C88.7966 42.8258 87.4907 43.2002 86.4343 43.5034L86.3733 43.5208C85.1943 43.8587 83.9375 44.4036 82.8859 45.1485C83.7252 44.3919 84.3368 43.2814 84.3676 42.1615C84.3956 41.1596 83.9613 40.0873 83.0253 39.6089C82.3703 40.466 82.0634 41.5668 81.9254 42.612Z" fill="white"/>
<path d="M77.7235 48.0715C78.3708 49.2663 79.959 49.4043 81.1163 49.4287C82.8439 49.4651 84.8041 48.7902 86.1849 47.6194C85.2735 46.7815 83.7827 46.8773 82.6373 46.9509L82.4922 46.9602C81.0666 47.0498 79.5681 47.3554 78.1957 47.8656C79.381 47.2893 80.5258 46.277 80.8571 45.0888C81.1353 44.0896 81.2256 42.9396 80.2925 42.1353C79.3201 42.8948 78.6399 43.9529 78.1418 44.9914C77.7228 45.8649 77.1974 47.0453 77.7144 48.0552L77.7235 48.0715Z" fill="white"/>
</svg>
