<svg width="124" height="70" viewBox="0 0 124 70" fill="none" xmlns="http://www.w3.org/2000/svg">
<path d="M52.9248 28.4347C52.9248 28.328 52.9248 26.7759 52.9248 26.7759H52.0017C52.0017 26.7759 52.0017 28.3039 52.0017 28.3521C52.0017 28.6343 51.74 28.8236 51.2991 28.8236C50.8376 28.8236 50.5862 28.6412 50.5862 28.3486C50.5862 28.3005 50.5862 26.7759 50.5862 26.7759H49.6528C49.6528 26.7759 49.6528 28.2247 49.6528 28.3486C49.6528 29.1677 50.3244 29.5153 51.2612 29.5153C52.2635 29.5153 52.9248 29.1643 52.9248 28.4347Z" fill="white"/>
<path d="M56.0335 29.4774V28.7582H54.3872V26.7759H53.4537V29.4774H56.0335Z" fill="white"/>
<path d="M58.8075 27.4539V26.7759H55.5802V27.4539H56.7203V29.4774H57.664V27.4539H58.8075Z" fill="white"/>
<path d="M60.0476 29.4774V26.7759H59.1013V29.4774H60.0476Z" fill="white"/>
<path d="M64.394 29.4774V26.7759H63.2264L62.4893 28.3969L61.7867 26.7759H60.5812V29.4774H61.4595V28.0183L62.0932 29.4774H62.8785L63.5191 28.0183V29.4774H64.394Z" fill="white"/>
<path d="M65.8569 28.9784H67.3173L67.555 29.4774H68.5504L67.1864 26.7759H66.0739L64.6308 29.4774H65.6055L65.8569 28.9784ZM67.0245 28.3727H66.16L66.501 27.7223L66.6043 27.4745L66.7008 27.7188L67.0245 28.3727Z" fill="white"/>
<path d="M71.478 27.4539V26.7759H68.2508V27.4539H69.3908V29.4774H70.3346V27.4539H71.478Z" fill="white"/>
<path d="M74.6165 29.4774V28.8064H72.678V28.4553H74.5373V27.798H72.678V27.4504H74.5926V26.7759H71.7687V29.4774H74.6165Z" fill="white"/>
<path d="M56.6919 30.9136H55.7998C55.7998 30.9136 55.2177 32.6137 55.2177 32.655C55.2177 32.6137 54.6735 30.9136 54.6735 30.9136H53.7057C53.7057 30.9136 53.165 32.6137 53.165 32.655C53.165 32.6137 52.5794 30.9136 52.5794 30.9136H51.5771L52.5898 33.6152H53.5989C53.5989 33.6152 54.1431 32.0011 54.1466 31.9564C54.15 32.0011 54.6908 33.6152 54.6908 33.6152H55.7034L56.6919 30.9136Z" fill="white"/>
<path d="M57.9118 33.6152V30.9136H56.9654V33.6152H57.9118Z" fill="white"/>
<path d="M61.5968 33.6152V30.9136H60.7151V32.3831L59.4166 30.9136H58.4453V33.6152H59.3339V32.1112L60.6738 33.6152H61.5968Z" fill="white"/>
<path d="M65.2866 33.6152V30.9136H64.4049V32.3831L63.1064 30.9136H62.1352V33.6152H63.0237V32.1112L64.3636 33.6152H65.2866Z" fill="white"/>
<path d="M68.6734 33.6152V32.9441H66.7343V32.593H68.5941V31.9357H66.7343V31.5881H68.6493V30.9136H65.8249V33.6152H68.6734Z" fill="white"/>
<path d="M72.3144 31.7361C72.3144 31.4918 72.2556 31.3162 72.1316 31.1889C71.9697 31.0168 71.6909 30.9136 71.2636 30.9136H69.1112V33.6152H70.0308V32.6619H70.8678L71.5396 33.6152H72.5659L71.7498 32.5138C71.9319 32.4863 72.0804 32.3762 72.1764 32.2455C72.2626 32.125 72.3144 31.946 72.3144 31.7361ZM71.4191 31.8221C71.4191 31.8669 71.4121 31.9219 71.3876 31.9632C71.3533 32.032 71.2636 32.0596 71.1158 32.0596H70.0342V31.5674H71.0982C71.2433 31.5674 71.3399 31.5915 71.3876 31.6811C71.4121 31.7154 71.4191 31.7705 71.4191 31.8221Z" fill="white"/>
<path d="M53.3131 36.273C53.3131 36.2289 53.3131 34.9529 53.3131 34.9529H52.9907C52.9907 34.9529 52.9907 36.2236 52.9907 36.2522C52.9907 36.5588 52.702 36.733 52.2858 36.733C51.7943 36.733 51.5524 36.5459 51.5524 36.2496C51.5524 36.221 51.5524 34.9529 51.5524 34.9529H51.2273C51.2273 34.9529 51.2273 36.1899 51.2273 36.2392C51.2273 36.7798 51.6487 37.0188 52.2729 37.0188C52.9178 37.0188 53.3131 36.7641 53.3131 36.273Z" fill="white"/>
<path d="M55.6271 36.9928V36.694H54.22V34.9529H53.895V36.9928H55.6271Z" fill="white"/>
<path d="M57.4743 35.2491V34.9529H55.3052V35.2491H56.2259V36.9928H56.5536V35.2491H57.4743Z" fill="white"/>
<path d="M59.7859 35.5298C59.7859 35.3842 59.7546 35.2777 59.7001 35.1919C59.6038 35.049 59.4191 34.9529 59.1123 34.9529H57.7911V36.9928H58.111V36.1327H59.042L59.6116 36.9928H59.9861L59.3698 36.0781C59.5258 36.0599 59.648 35.9715 59.713 35.8572C59.7599 35.7792 59.7859 35.6649 59.7859 35.5298ZM59.4633 35.5557C59.4633 35.6129 59.4504 35.6831 59.427 35.7299C59.3854 35.8052 59.2891 35.8442 59.1331 35.8468H58.1136C58.1136 35.8416 58.1136 35.2439 58.1136 35.2439H59.0733C59.2683 35.2439 59.3723 35.2907 59.427 35.379C59.4504 35.4206 59.4633 35.4908 59.4633 35.5557Z" fill="white"/>
<path d="M60.7114 36.4887H61.9832L62.2432 36.9928H62.5917L61.5566 34.9529H61.1743L60.1054 36.9928H60.4461L60.7114 36.4887ZM61.8479 36.2002H60.8519L61.2653 35.418L61.3564 35.2283L61.4474 35.418L61.8479 36.2002Z" fill="white"/>
<path d="M65.8902 36.798C65.9709 36.7044 66.0073 36.5719 66.0073 36.4289C66.0073 36.2938 65.9683 36.1586 65.8876 36.0755C65.807 35.9976 65.677 35.9326 65.5339 35.9196C65.6172 35.9066 65.6822 35.8546 65.7264 35.8C65.7966 35.7195 65.8382 35.5895 65.8382 35.4596C65.8382 35.3219 65.7966 35.1971 65.7082 35.1114C65.612 35.0153 65.4481 34.9529 65.2192 34.9529H63.846V36.9928H65.3207C65.5963 36.9928 65.7888 36.9227 65.8902 36.798ZM65.5027 35.5246C65.5027 35.6155 65.4741 35.6961 65.4247 35.7428C65.3752 35.7974 65.292 35.8208 65.2036 35.8208H64.1633V35.2335H65.1438C65.2634 35.2335 65.3544 35.2569 65.4169 35.3141C65.4715 35.366 65.5027 35.4414 65.5027 35.5246ZM65.6067 36.6004C65.5417 36.6732 65.4299 36.7096 65.266 36.7096H64.1633V36.1041H65.2739C65.4247 36.1041 65.5287 36.1353 65.5912 36.195C65.6483 36.2496 65.6718 36.3198 65.6718 36.4003C65.6718 36.4835 65.6536 36.5536 65.6067 36.6004Z" fill="white"/>
<path d="M68.3683 36.9928V36.694H66.7819V36.1119H68.3059V35.8156H66.7819V35.2491H68.3501V34.9529H66.4646V36.9928H68.3683Z" fill="white"/>
<path d="M70.9091 36.39C70.9091 36.0573 70.6884 35.8858 70.1447 35.8235C70.0535 35.8105 69.8558 35.7897 69.7491 35.7767C69.2446 35.7169 69.0912 35.6494 69.0912 35.4753C69.0912 35.3064 69.2602 35.2102 69.77 35.2102C70.1651 35.2102 70.3682 35.2882 70.4698 35.4285C70.4985 35.4675 70.5139 35.5143 70.5217 35.5506H70.8698C70.86 35.4908 70.8362 35.4077 70.7998 35.3401C70.6597 35.0985 70.371 34.9243 69.77 34.9243C69.0522 34.9217 68.7557 35.1817 68.7557 35.5039C68.7557 35.8261 68.9871 35.9898 69.5879 36.06C69.692 36.073 69.8766 36.0937 69.9676 36.1042C70.4334 36.1613 70.5791 36.2315 70.5791 36.4264C70.5791 36.6057 70.4124 36.7356 69.8792 36.7356C69.4423 36.7356 69.2082 36.6577 69.1146 36.507C69.086 36.4654 69.0678 36.4004 69.0652 36.3562H68.7218C68.7297 36.4498 68.7557 36.5511 68.8025 36.6317C68.9378 36.8786 69.255 37.0215 69.8688 37.0215C70.6022 37.0215 70.9091 36.785 70.9091 36.39Z" fill="white"/>
<path d="M73.2413 35.2491V34.9529H71.0723V35.2491H71.9929V36.9928H72.3207V35.2491H73.2413Z" fill="white"/>
<path d="M50.3067 38.7661C50.3067 38.5582 50.2651 38.4178 50.1948 38.3113C50.0961 38.1579 49.9035 38.0774 49.568 38.0774H48.2781V40.1173H48.6006V39.4521C48.6006 39.4521 49.5109 39.4521 49.5551 39.4521C49.8698 39.4495 50.0856 39.3767 50.2001 39.2104C50.2729 39.1091 50.3067 38.9635 50.3067 38.7661ZM49.979 38.7661C49.979 38.8699 49.9686 38.9479 49.9348 38.9999C49.875 39.096 49.7527 39.1558 49.5004 39.1558C49.477 39.1558 48.6006 39.1558 48.6006 39.1558V38.3685H49.5109C49.7475 38.3685 49.8698 38.423 49.9348 38.5295C49.966 38.5763 49.979 38.6621 49.979 38.7661Z" fill="white"/>
<path d="M52.6608 40.1173V39.8185H51.0743V39.2364H52.5983V38.9401H51.0743V38.3736H52.6425V38.0774H50.757V40.1173H52.6608Z" fill="white"/>
<path d="M55.1418 38.6543C55.1418 38.5087 55.1106 38.4022 55.0559 38.3164C54.9597 38.1735 54.7751 38.0774 54.4682 38.0774H53.147V40.1173H53.4669V39.2572H54.398L54.9675 40.1173H55.342L54.7256 39.2026C54.8817 39.1844 55.0039 39.096 55.069 38.9817C55.1158 38.9037 55.1418 38.7894 55.1418 38.6543ZM54.8193 38.6802C54.8193 38.7374 54.8063 38.8076 54.7829 38.8544C54.7412 38.9297 54.645 38.9687 54.489 38.9713H53.4695C53.4695 38.9661 53.4695 38.3685 53.4695 38.3685H54.4291C54.6242 38.3685 54.7282 38.4152 54.7829 38.5036C54.8063 38.5451 54.8193 38.6153 54.8193 38.6802Z" fill="white"/>
<path d="M57.5529 38.3736V38.0774H55.7376V40.1173H56.0601V39.2494H57.4853V38.9453H56.0601V38.3736H57.5529Z" fill="white"/>
<path d="M59.0332 38.0409C58.5989 38.0409 58.2998 38.1474 58.0865 38.3709C57.907 38.545 57.829 38.7867 57.829 39.0908C57.829 39.4234 57.9304 39.6729 58.1177 39.8418C58.318 40.0419 58.6248 40.1458 59.0332 40.1458C59.4545 40.1458 59.7822 40.0419 59.9773 39.8314C60.1463 39.6599 60.2347 39.4156 60.2347 39.0882C60.2347 38.7711 60.1593 38.5294 59.9799 38.3579C59.7744 38.1448 59.4675 38.0409 59.0332 38.0409ZM59.0332 39.8548C58.7471 39.8548 58.5442 39.7924 58.3908 39.6677C58.2348 39.5404 58.1593 39.3454 58.1593 39.0959C58.1593 38.8621 58.2243 38.6672 58.3492 38.5502C58.4922 38.4151 58.7107 38.3345 59.0306 38.3345C59.3608 38.3345 59.5663 38.4125 59.7197 38.5476C59.8498 38.662 59.907 38.8647 59.907 39.0933C59.907 39.3246 59.8472 39.5222 59.7146 39.6417C59.5611 39.7846 59.3453 39.8548 59.0332 39.8548Z" fill="white"/>
<path d="M62.6749 38.6543C62.6749 38.5087 62.6437 38.4022 62.5891 38.3164C62.4929 38.1735 62.3082 38.0774 62.0013 38.0774H60.6801V40.1173H61V39.2572H61.9311L62.5007 40.1173H62.8752L62.2588 39.2026C62.4148 39.1844 62.5371 39.096 62.6021 38.9817C62.6489 38.9037 62.6749 38.7894 62.6749 38.6543ZM62.3524 38.6802C62.3524 38.7374 62.3394 38.8076 62.316 38.8544C62.2744 38.9297 62.1782 38.9687 62.0221 38.9713H61.0026C61.0026 38.9661 61.0026 38.3685 61.0026 38.3685H61.9623C62.1574 38.3685 62.2614 38.4152 62.316 38.5036C62.3394 38.5451 62.3524 38.6153 62.3524 38.6802Z" fill="white"/>
<path d="M65.7857 40.1173V38.0774H65.3644L64.5244 39.7561L63.6999 38.0774H63.2708V40.1173H63.5803V38.5477L64.35 40.1173H64.6881L65.4762 38.5477V40.1173H65.7857Z" fill="white"/>
<path d="M66.699 39.6132H67.9709L68.2309 40.1173H68.5794L67.5443 38.0774H67.162L66.093 40.1173H66.4337L66.699 39.6132ZM67.8356 39.3247H66.8395L67.253 38.5425L67.344 38.3528L67.4351 38.5425L67.8356 39.3247Z" fill="white"/>
<path d="M70.9224 40.1173V38.0774H70.6128V39.6625L69.2607 38.0774H68.8939V40.1173H69.2086V38.5218L70.5714 40.1173H70.9224Z" fill="white"/>
<path d="M73.7282 39.3558H73.3898C73.3793 39.4494 73.3429 39.543 73.2777 39.6131C73.1376 39.7768 72.9141 39.847 72.5708 39.847C72.2822 39.847 71.9726 39.7664 71.824 39.5559C71.7463 39.4572 71.6965 39.3117 71.6965 39.0933C71.6965 38.8985 71.7309 38.7529 71.8058 38.6542C71.9305 38.4541 72.1932 38.3502 72.5631 38.3502C72.9218 38.3502 73.1481 38.4489 73.2679 38.5866C73.3352 38.6593 73.3744 38.7452 73.387 38.8465H73.7254C73.7149 38.7321 73.6784 38.597 73.6007 38.4827C73.4339 38.2358 73.1271 38.0409 72.5652 38.0409C72.03 38.0409 71.7098 38.2124 71.5326 38.4696C71.4184 38.6178 71.361 38.8257 71.361 39.0908C71.361 39.387 71.4317 39.6053 71.5536 39.7586C71.7309 40.0003 72.0713 40.1458 72.5862 40.1458C73.1145 40.1458 73.429 39.9873 73.5853 39.7352C73.6735 39.6131 73.7177 39.4676 73.7282 39.3558Z" fill="white"/>
<path d="M76.0554 40.1173V39.8185H74.4686V39.2364H75.9931V38.9401H74.4686V38.3736H76.0372V38.0774H74.1513V40.1173H76.0554Z" fill="white"/>
<path d="M52.2704 42.1438L52.6594 43.34H53.9181L52.8998 44.0792L53.2888 45.2753L52.2704 44.5361L51.2521 45.2753L51.6411 44.0792L50.6228 43.34H51.8815L52.2704 42.1438Z" fill="white"/>
<path d="M56.7608 42.1438L57.1576 43.3399H58.4421L57.403 44.0792L57.7999 45.2753L56.7608 44.5361L55.7217 45.2753L56.1186 44.0792L55.0795 43.3399H56.3639L56.7608 42.1438Z" fill="white"/>
<path d="M61.2156 42.1438L61.6125 43.3399H62.8969L61.8578 44.0792L62.2547 45.2753L61.2156 44.5361L60.1765 45.2753L60.5733 44.0792L59.5342 43.3399H60.8187L61.2156 42.1438Z" fill="white"/>
<path d="M65.6705 42.1438L66.0674 43.3399H67.3518L66.3128 44.0792L66.7096 45.2753L65.6705 44.5361L64.6315 45.2753L65.0283 44.0792L63.9893 43.3399H65.2737L65.6705 42.1438Z" fill="white"/>
<path d="M70.1609 42.1438L70.5497 43.3399H71.8086L70.79 44.0792L71.1788 45.2753L70.1609 44.5361L69.1425 45.2753L69.5315 44.0792L68.5132 43.3399H69.7719L70.1609 42.1438Z" fill="white"/>
<path d="M54.4521 21.9634L54.7462 22.8678H55.6979L54.928 23.4267L55.2221 24.3311L54.4521 23.7722L53.6822 24.3311L53.9763 23.4267L53.2064 22.8678H54.1581L54.4521 21.9634Z" fill="white"/>
<path d="M57.8472 21.962L58.1474 22.8664H59.1184L58.3328 23.4254L58.6329 24.3297L57.8472 23.7708L57.0616 24.3297L57.3617 23.4254L56.576 22.8664H57.5471L57.8472 21.962Z" fill="white"/>
<path d="M61.2154 21.962L61.5155 22.8664H62.4866L61.701 23.4254L62.001 24.3297L61.2154 23.7708L60.4297 24.3297L60.7299 23.4254L59.9442 22.8664H60.9153L61.2154 21.962Z" fill="white"/>
<path d="M64.5841 21.962L64.8842 22.8664H65.8553L65.0697 23.4254L65.3697 24.3297L64.5841 23.7708L63.7984 24.3297L64.0985 23.4254L63.3129 22.8664H64.284L64.5841 21.962Z" fill="white"/>
<path d="M67.9787 21.962L68.2728 22.8664H69.2245L68.4546 23.4254L68.7487 24.3297L67.9787 23.7708L67.2088 24.3297L67.5029 23.4254L66.7329 22.8664H67.6846L67.9787 21.962Z" fill="white"/>
<path fill-rule="evenodd" clip-rule="evenodd" d="M40.8965 38.2413C39.5986 30.1276 43.3864 22.1002 50.9694 18.653L51.0394 18.8067C43.5327 22.2192 39.7762 30.1681 41.0633 38.2146C42.4874 47.1167 49.6747 52.4556 58.4763 52.713L58.4713 52.8818C49.6012 52.6224 42.3351 47.2352 40.8965 38.2413Z" fill="white"/>
<path d="M49.3252 20.7237C47.9239 20.7556 46.2838 21.5452 45.316 22.6921C46.0921 23.4122 47.3408 23.146 48.2394 22.9987C49.5219 22.7885 50.8858 22.3814 52.096 21.8051C51.5984 20.7467 50.258 20.7025 49.3252 20.7237Z" fill="white"/>
<path d="M48.2232 18.9963C47.3932 20.2883 46.404 21.5723 45.3275 22.703C44.4268 21.8582 44.9705 20.4524 45.338 19.5782C46.0039 17.9941 47.6005 16.628 49.2696 15.9291C49.7277 16.9705 48.7326 18.2034 48.2232 18.9963Z" fill="white"/>
<path d="M45.2701 24.3465C43.9579 24.8125 42.8304 26.1245 42.2642 27.4416C43.2078 27.8799 44.2804 27.2469 45.0651 26.8255C46.1426 26.2467 47.2418 25.4481 48.1067 24.524C47.3253 23.7001 46.1386 24.0381 45.2701 24.3465Z" fill="white"/>
<path d="M43.6795 23.0555C43.3923 24.529 42.9107 26.0563 42.2783 27.4483C41.1743 26.928 41.2163 25.438 41.2636 24.4898C41.3443 22.8713 42.2505 21.0257 43.5122 19.8528C44.2846 20.6802 43.8625 22.1169 43.6795 23.0555Z" fill="white"/>
<path d="M42.7453 29.0238C41.652 29.8856 40.9892 31.4828 40.8357 32.9091C41.8701 33.0277 42.6968 32.0872 43.312 31.4419C44.1495 30.5634 44.9423 29.4614 45.4458 28.3086C44.4598 27.7712 43.4575 28.4624 42.7453 29.0238Z" fill="white"/>
<path d="M40.851 28.2962C41.046 29.7841 41.0464 31.3939 40.8513 32.911C39.6485 32.7633 39.2495 31.3202 39.0138 30.4149C38.6069 28.8522 38.8797 26.8337 39.6724 25.3146C40.6629 25.8625 40.7264 27.3451 40.851 28.2962Z" fill="white"/>
<path d="M41.8873 34.1292C41.0221 35.3955 40.7178 37.3801 41.1069 38.9753C42.2502 38.7048 42.817 37.4114 43.2721 36.498C43.8769 35.284 44.3881 33.8676 44.5711 32.4781C43.331 32.2202 42.4572 33.2949 41.8873 34.1292Z" fill="white"/>
<path d="M39.616 34.0011C40.2901 35.5605 40.8162 37.2768 41.124 38.9714C39.8127 39.2529 38.869 37.8771 38.3208 36.9648C37.3447 35.341 37.0603 33.0899 37.4179 31.1472C38.618 31.3877 39.2053 33.0512 39.616 34.0011Z" fill="white"/>
<path d="M42.4925 39.639C42.0279 41.1752 42.3508 43.2637 43.2914 44.7079C44.325 44.0355 44.4681 42.5556 44.6146 41.4944C44.8077 40.0941 44.8986 38.543 44.6587 37.0909C43.3367 37.2596 42.8028 38.6127 42.4925 39.639Z" fill="white"/>
<path d="M40.1951 40.2966C41.3549 41.6264 42.4248 43.1426 43.3072 44.6979C42.1105 45.4444 40.7062 44.4245 39.8545 43.7029C38.3436 42.4226 37.3625 40.2467 37.13 38.1953C38.3873 38.0264 39.4954 39.4943 40.1951 40.2966Z" fill="white"/>
<path d="M44.9301 44.8676C45.0298 46.6558 46.1949 48.5321 47.7462 49.6001C48.4954 48.5753 48.0258 47.0049 47.7703 45.9088C47.4262 44.433 46.95 42.8962 46.2424 41.5326C45.0084 42.1842 44.8644 43.69 44.9301 44.8676Z" fill="white"/>
<path d="M42.8436 46.3781C44.5243 47.3113 46.2002 48.4125 47.7584 49.5842C46.8253 50.812 44.9601 50.3224 43.8039 49.9277C41.7663 49.2323 39.9498 47.399 39.0011 45.3622C40.204 44.7431 41.8508 45.8269 42.8436 46.3781Z" fill="white"/>
<path d="M49.7169 49.2362C50.7257 51.0757 53.0245 52.2757 55.1892 52.5646C55.4222 51.2273 53.9741 49.9032 53.185 49.0371C52.0615 47.8039 50.8907 46.5241 49.5782 45.4579C48.5948 46.5987 49.1147 48.138 49.7169 49.2362Z" fill="white"/>
<path d="M48.2763 51.5675C50.5693 51.8057 52.9012 52.1486 55.1929 52.544C54.9741 54.2313 52.2944 54.5036 51.0778 54.6032C48.5835 54.8075 45.8087 53.8057 43.8766 52.1191C44.8362 50.9908 47.0548 51.4406 48.2763 51.5675Z" fill="white"/>
<path d="M52.6929 17.2367C51.1534 17.6756 49.3514 18.5081 48.4612 20.0449C50.0771 19.8689 51.6652 19.2944 53.2183 18.8567C54.9579 18.3663 56.7897 17.9996 58.474 17.3228C56.6294 16.5854 54.455 16.7344 52.6929 17.2367Z" fill="white"/>
<path fill-rule="evenodd" clip-rule="evenodd" d="M82.4761 38.2146C83.7631 30.1681 80.0066 22.2193 72.5001 18.8067L72.5701 18.653C80.153 22.1002 83.941 30.1276 82.6429 38.2413C81.2046 47.2352 73.9383 52.6224 65.0682 52.8818L65.0633 52.713C73.8648 52.4556 81.0519 47.1167 82.4761 38.2146Z" fill="white"/>
<path d="M74.2143 20.7237C75.6155 20.7556 77.2555 21.5452 78.2237 22.6921C77.4475 23.4122 76.1983 23.146 75.3002 22.9987C74.0175 22.7885 72.6535 22.3814 71.4436 21.8051C71.941 20.7467 73.2812 20.7025 74.2143 20.7237Z" fill="white"/>
<path d="M75.3163 18.9963C76.1465 20.2883 77.1357 21.5723 78.2118 22.703C79.1127 21.8582 78.5691 20.4524 78.2013 19.5782C77.5357 17.9941 75.9391 16.628 74.2697 15.9291C73.8115 16.9705 74.807 18.2034 75.3163 18.9963Z" fill="white"/>
<path d="M78.2699 24.3465C79.5821 24.8125 80.7093 26.1245 81.2753 27.4416C80.3317 27.8799 79.2591 27.2469 78.4745 26.8255C77.397 26.2467 76.2978 25.4481 75.4333 24.524C76.2145 23.7001 77.4012 24.0381 78.2699 24.3465Z" fill="white"/>
<path d="M79.8602 23.0555C80.1474 24.529 80.6287 26.0563 81.2613 27.4483C82.3654 26.928 82.3234 25.438 82.2758 24.4898C82.1952 22.8713 81.2894 21.0257 80.0276 19.8528C79.2549 20.6802 79.6773 22.1169 79.8602 23.0555Z" fill="white"/>
<path d="M80.7941 29.0238C81.8876 29.8856 82.5504 31.4828 82.7038 32.9091C81.6698 33.0277 80.8431 32.0872 80.228 31.4419C79.3901 30.5634 78.5971 29.4614 78.0941 28.3086C79.0798 27.7712 80.0823 28.4624 80.7941 29.0238Z" fill="white"/>
<path d="M82.6891 28.2962C82.4936 29.784 82.4936 31.3939 82.6884 32.911C83.8913 32.7633 84.2906 31.3202 84.526 30.4149C84.933 28.8522 84.6598 26.8337 83.8674 25.3146C82.8768 25.8625 82.8131 27.3451 82.6891 28.2962Z" fill="white"/>
<path d="M81.6523 34.1292C82.5175 35.3955 82.8215 37.3801 82.4327 38.9753C81.2894 38.7048 80.7226 37.4115 80.2672 36.498C79.6626 35.284 79.1512 33.8676 78.9684 32.4781C80.2084 32.2202 81.0827 33.2949 81.6523 34.1292Z" fill="white"/>
<path d="M83.9235 34.0011C83.2495 35.5605 82.7234 37.2768 82.4158 38.9714C83.7266 39.2529 84.6703 37.8771 85.2188 36.9648C86.1947 35.341 86.4791 33.0899 86.1219 31.1472C84.9218 31.3877 84.334 33.0512 83.9235 34.0011Z" fill="white"/>
<path d="M81.0469 39.639C81.5114 41.1752 81.1891 43.2637 80.2483 44.7079C79.215 44.0355 79.0714 42.5556 78.9249 41.4944C78.7323 40.0941 78.6412 38.543 78.8808 37.0909C80.2028 37.2596 80.7366 38.6127 81.0469 39.639Z" fill="white"/>
<path d="M83.3441 40.2966C82.1847 41.6265 81.1149 43.1426 80.2322 44.6979C81.4288 45.4444 82.8334 44.4245 83.6853 43.7029C85.1957 42.4226 86.1772 40.2467 86.4098 38.1953C85.1523 38.0264 84.044 39.4943 83.3441 40.2966Z" fill="white"/>
<path d="M78.609 44.8676C78.5095 46.6558 77.3445 48.5321 75.7934 49.6001C75.0438 48.5753 75.5139 47.005 75.7689 45.9088C76.1129 44.433 76.5892 42.8962 77.2968 41.5326C78.5312 42.1842 78.6748 43.69 78.609 44.8676Z" fill="white"/>
<path d="M80.696 46.3781C79.0153 47.3113 77.3396 48.4125 75.7815 49.5842C76.7147 50.812 78.5796 50.3224 79.7355 49.9277C81.7734 49.2323 83.59 47.399 84.5386 45.3622C83.3357 44.7431 81.6887 45.8269 80.696 46.3781Z" fill="white"/>
<path d="M73.8227 49.2362C72.8139 51.0757 70.5154 52.2757 68.3504 52.5646C68.1174 51.2273 69.5654 49.9032 70.355 49.0371C71.478 47.8039 72.6486 46.5241 73.9615 45.4579C74.9451 46.5987 74.4245 48.138 73.8227 49.2362Z" fill="white"/>
<path d="M75.2631 51.5675C72.9702 51.8057 70.6387 52.1486 68.3466 52.544C68.5654 54.2313 71.2454 54.5036 72.4615 54.6032C74.9563 54.8075 77.7312 53.8057 79.6627 52.1191C78.7036 50.9908 76.4849 51.4406 75.2631 51.5675Z" fill="white"/>
<path d="M70.8467 17.2367C72.3859 17.6756 74.1884 18.5081 75.0781 20.0449C73.4626 19.8689 71.8745 19.2944 70.3213 18.8567C68.5817 18.3663 66.7499 17.9996 65.0656 17.3228C66.9103 16.5854 69.0846 16.7344 70.8467 17.2367Z" fill="white"/>
<path d="M62.7709 16.4415L61.981 14.7L61.206 16.4091L59.4035 15.2924L60.5617 17.7244H63.4422L64.5586 15.2924L62.7709 16.4415Z" fill="white"/>
<path d="M63.4237 18.1024H60.5387V18.5278H63.4237V18.1024Z" fill="white"/>
<path d="M62.1873 51.0103L62.6522 52.4398H64.1566L62.9395 53.3233L63.4044 54.7528L62.1873 53.8693L60.9703 54.7528L61.4352 53.3233L60.2182 52.4398H61.7225L62.1873 51.0103Z" fill="white"/>
</svg>
