<svg width="124" height="70" viewBox="0 0 124 70" fill="none" xmlns="http://www.w3.org/2000/svg">
<path d="M31.5473 25.3247C31.1022 24.1945 31.2954 22.8949 31.7054 21.8019C32.1367 20.6518 32.8878 19.5049 34.0104 18.9C34.0661 20.112 33.6956 21.3094 33.2907 22.3892C32.9266 23.3604 32.4799 24.395 31.7422 25.1982C31.6288 25.8068 31.542 26.4137 31.4809 27.0178C31.7254 26.3796 32.1218 25.7979 32.6165 25.3302C33.2534 24.7279 34.2007 24.2631 35.09 24.538C34.8296 25.5202 34.2358 26.4618 33.5327 27.1223C32.9792 27.6422 32.2486 28.3084 31.388 28.3346C31.3526 29.2236 31.3726 30.1044 31.4458 30.9733C31.5672 30.3375 31.8274 29.7387 32.2032 29.2928C32.7195 28.6801 33.4851 27.9315 34.4628 28.0567C34.4094 29.0509 34.0126 30.0694 33.4599 30.8348C33.0207 31.443 32.4409 32.2182 31.618 32.4185C31.7497 33.2723 31.9333 34.1119 32.1662 34.9335C32.1684 34.3044 32.3075 33.687 32.5834 33.1917C32.9722 32.4933 33.5777 31.6224 34.5566 31.5543C34.7 32.5296 34.5056 33.5958 34.1135 34.4437C33.8 35.1215 33.3821 35.9859 32.6204 36.3435C32.9403 37.2275 33.3188 38.0867 33.7528 38.9161C33.6004 38.2013 33.6065 37.448 33.7869 36.7703C34.0353 35.8359 34.6522 34.8544 35.6425 34.5696C35.9926 35.6011 35.9443 36.7523 35.7409 37.8008C35.5736 38.664 35.2447 39.6779 34.5076 40.2387C34.9895 41.0158 35.5226 41.7615 36.104 42.4711C35.7917 41.7752 35.6364 41.0141 35.7197 40.3172C35.841 39.3021 36.1265 38.2161 37.1643 37.6749C37.753 38.6899 37.8894 39.8286 37.9395 40.9533C37.9799 41.8625 37.8488 42.9839 37.2168 43.7236C37.912 44.4458 38.6621 45.1217 39.4633 45.745C38.946 45.0821 38.5838 44.3041 38.5071 43.5347C38.3988 42.4477 38.4518 41.251 39.4172 40.4533C40.2429 41.315 40.7356 42.584 40.9771 43.6863C41.1906 44.6608 41.4136 45.8143 40.9052 46.7733C41.9248 47.4383 43.0132 48.0242 44.164 48.5204C43.3543 47.9438 42.6914 47.1527 42.3756 46.336C41.9618 45.2653 41.7058 43.9896 42.5119 42.9173C43.592 43.6086 44.3858 44.7879 45.0112 45.8635C45.5478 46.7865 46.1033 48.0604 45.8277 49.1596C46.4648 49.3756 47.1185 49.5653 47.7877 49.7271L47.7479 49.8913C47.0762 49.7288 46.42 49.5385 45.7803 49.3218C45.332 50.6453 43.8637 51.0825 42.6763 51.2756C40.9843 51.5506 38.9697 51.0177 37.5253 49.9442C38.2876 48.8677 39.8431 48.7585 41.016 48.6761L41.0313 48.675C42.3162 48.5848 43.7059 48.7053 44.998 49.0408C43.5053 48.473 42.1086 47.7591 40.8207 46.9199L40.8017 46.9499C40.0959 48.0933 38.679 48.1379 37.5668 48.0656C36.0575 47.9675 34.3151 47.0505 33.3066 45.783C34.2552 44.9514 35.6562 45.1842 36.7418 45.3645L36.7471 45.3654C37.9587 45.5666 39.2827 46.0056 40.3941 46.6816C40.2882 46.5983 40.1846 46.5102 40.084 46.4178C39.0034 45.648 38.0066 44.7869 37.1021 43.8481C37.0916 43.8586 37.081 43.869 37.0703 43.8794C36.1908 44.7634 34.9099 44.5319 33.9102 44.2442C32.5725 43.8592 31.1852 42.6977 30.5203 41.3643C31.5506 40.7875 32.7823 41.2628 33.7404 41.6388C34.792 42.0514 35.9045 42.7115 36.76 43.553C36.6718 43.4418 36.5876 43.3257 36.5081 43.2055C35.713 42.3088 34.9977 41.3486 34.3689 40.3356L34.3374 40.3554C33.3424 40.9969 32.2151 40.5323 31.3217 40.0754C30.1104 39.456 29.1369 38.0947 28.7163 36.7558C29.7909 36.4119 30.8526 37.0869 31.6779 37.6215C32.5806 38.2062 33.495 39.04 34.1226 39.9963C34.0765 39.9021 34.0336 39.8057 33.994 39.7076C33.391 38.6563 32.8786 37.5527 32.4639 36.4079L32.4425 36.4151L32.4408 36.4158C31.5361 36.7594 30.5287 36.2252 29.872 35.6393C28.9591 34.825 28.3157 33.5732 28.1649 32.3502C29.1081 32.2282 29.9967 32.9573 30.6042 33.5792C31.3035 34.2949 31.9311 35.1409 32.317 36.0805C32.2888 35.9784 32.2647 35.8747 32.2443 35.77C31.8932 34.6942 31.6272 33.5847 31.4519 32.4504L31.4382 32.4521L31.4336 32.4529C30.4772 32.6124 29.5929 31.8859 29.0646 31.1808C28.3234 30.1913 27.9413 28.8219 28.0371 27.5807C28.9898 27.6473 29.7152 28.5529 30.1857 29.2854C30.7301 30.1335 31.1817 31.0933 31.3794 32.0973C31.3734 32.0175 31.3698 31.9371 31.3686 31.8565C31.2233 30.7021 31.1716 29.524 31.2189 28.3313L31.2162 28.3312C30.2438 28.2962 29.5252 27.3941 29.1542 26.5939C28.6233 25.4489 28.5378 24.0015 28.8921 22.7817C29.8189 23.0416 30.3356 24.1038 30.6405 24.9215C30.9922 25.8643 31.2376 26.8925 31.2395 27.9148C31.2901 27.0571 31.392 26.1927 31.5473 25.3247Z" fill="white"/>
<path d="M50.6987 23.2087V27.3036C50.6987 29.1046 49.0663 29.9712 46.5921 29.9712C44.2795 29.9712 42.6215 29.1132 42.6215 27.0912V23.2087H44.9257V27.0912C44.9257 27.8134 45.5463 28.2636 46.6856 28.2636C47.774 28.2636 48.4202 27.7963 48.4202 27.0997V23.2087H50.6987Z" fill="white"/>
<path d="M58.3727 28.1022V29.8777H52.0044V23.2087H54.3086V28.1022H58.3727Z" fill="white"/>
<path d="M65.2204 24.8824V23.2087H57.2536V24.8824H60.0679V29.8777H62.3976V24.8824H65.2204Z" fill="white"/>
<path fill-rule="evenodd" clip-rule="evenodd" d="M73.3933 23.8884C73.6994 24.2027 73.8445 24.636 73.8445 25.2392C73.8445 25.7574 73.717 26.1992 73.504 26.4965C73.2658 26.8193 72.9001 27.0912 72.4496 27.1592L74.4652 29.8777H71.9312L70.273 27.5245H68.2071V29.8777H65.937V23.2087H71.251C72.3053 23.2087 72.994 23.4636 73.3933 23.8884ZM71.5571 25.7999C71.6167 25.6979 71.6335 25.562 71.6335 25.4516C71.6335 25.3241 71.6167 25.1882 71.5571 25.1033C71.438 24.8824 71.1998 24.8229 70.8425 24.8229H68.2156V26.0378H70.8853C71.251 26.0378 71.4723 25.9698 71.5571 25.7999Z" fill="white"/>
<path fill-rule="evenodd" clip-rule="evenodd" d="M77.5322 28.6459H81.1373L81.7237 29.8777H84.1813L80.8144 23.2087H78.0682L74.5058 29.8777H76.9115L77.5322 28.6459ZM80.4144 27.1507H78.2804L79.1225 25.5451L79.3775 24.9333L79.6157 25.5365L80.4144 27.1507Z" fill="white"/>
<path fill-rule="evenodd" clip-rule="evenodd" d="M73.1502 31.1338C71.7238 31.1338 70.9735 31.8093 70.9735 32.8019C70.9735 33.9222 71.761 34.4906 73.1502 34.4906C74.6795 34.4906 75.3226 33.8316 75.3226 32.8019C75.3226 31.7557 74.5969 31.1338 73.1502 31.1338ZM73.1502 33.6627C72.3382 33.6627 72.1028 33.3291 72.1028 32.8143C72.1028 32.3077 72.3585 31.9741 73.146 31.9741C74.0077 31.9741 74.201 32.3488 74.201 32.8143C74.201 33.3085 73.9663 33.6627 73.1502 33.6627Z" fill="white"/>
<path d="M68.8595 34.4411V32.5259H66.7077V33.222H67.8578C67.8496 33.2755 67.8083 33.3785 67.7547 33.4402C67.6352 33.5803 67.3178 33.7039 66.9056 33.7039C66.4769 33.7039 66.2007 33.5926 66.0524 33.4197C65.9534 33.292 65.8957 33.1108 65.8957 32.8389C65.8957 32.5547 65.9534 32.3612 66.0647 32.2335C66.2255 32.0523 66.4975 31.974 66.8974 31.974C67.256 31.974 67.5033 32.0563 67.6188 32.1593C67.6929 32.2211 67.7506 32.3076 67.763 32.3653H68.8306C68.8265 32.2623 68.7935 32.0976 68.7358 31.9782C68.4802 31.4592 67.8866 31.1503 66.8768 31.1503C65.9988 31.1503 65.4093 31.4179 65.0837 31.8216C64.8693 32.0976 64.7704 32.4435 64.7704 32.8307C64.7704 33.2591 64.8858 33.6256 65.0754 33.8686C65.3969 34.2847 65.9699 34.4905 66.6583 34.4905C67.2643 34.4905 67.6805 34.3464 67.9444 34.1281L67.9732 34.4411H68.8595Z" fill="white"/>
<path d="M57.6307 32.4848C58.4674 32.5754 58.8261 32.872 58.8261 33.4362C58.8261 34.1199 58.1583 34.4906 56.8433 34.4906C55.6191 34.4906 55.0915 34.1447 54.8895 33.6916C54.8442 33.5845 54.8236 33.4527 54.8112 33.3703H55.9983C56.0066 33.4197 56.0355 33.4939 56.0766 33.5433C56.1756 33.6628 56.4517 33.7328 56.9217 33.7328C57.5276 33.7328 57.6719 33.6463 57.6719 33.4857C57.6719 33.3126 57.5235 33.2756 56.9753 33.2179C56.7568 33.1973 56.4105 33.1644 56.2663 33.152C55.2193 33.0573 54.8318 32.7319 54.8318 32.1759C54.8318 31.5992 55.5161 31.1586 56.765 31.1586C57.8739 31.1586 58.3891 31.4881 58.6035 31.8999C58.6694 32.0235 58.7106 32.1635 58.723 32.2623H57.5358C57.5317 32.217 57.5152 32.1718 57.4699 32.1141C57.3792 31.9947 57.1484 31.9164 56.7362 31.9164C56.155 31.9164 56.0025 31.9864 56.0025 32.1347C56.0025 32.2994 56.1962 32.3365 56.8433 32.4065C57.0948 32.4271 57.4947 32.4683 57.6307 32.4848Z" fill="white"/>
<path fill-rule="evenodd" clip-rule="evenodd" d="M45.7964 31.4839C46.0149 31.6569 46.1385 31.9494 46.1385 32.3736C46.1385 32.7196 46.052 32.979 45.8871 33.1602C45.6645 33.4156 45.2976 33.531 44.8195 33.5351C44.671 33.5392 43.4015 33.5351 43.4015 33.5351V34.4412H42.2926V31.208H44.8029C45.2482 31.208 45.5862 31.2986 45.7964 31.4839ZM44.9761 32.6248C45.009 32.5672 45.0256 32.493 45.0256 32.39C45.0256 32.283 45.0049 32.1923 44.9679 32.1429C44.8978 32.04 44.7659 31.9905 44.5515 31.9905H43.3932V32.7813H44.5432C44.7741 32.7813 44.9101 32.7278 44.9761 32.6248Z" fill="white"/>
<path fill-rule="evenodd" clip-rule="evenodd" d="M50.1948 31.5375C50.3432 31.6899 50.4133 31.9 50.4133 32.1923C50.4133 32.4436 50.3514 32.6578 50.2484 32.8019C50.133 32.9584 49.9557 33.0902 49.7372 33.1232L50.7142 34.4412H49.4858L48.682 33.3003H47.6803V34.4412H46.5797V31.208H49.156C49.6672 31.208 50.0011 31.3316 50.1948 31.5375ZM49.3044 32.4642C49.3333 32.4148 49.3415 32.3489 49.3415 32.2953C49.3415 32.2336 49.3333 32.1676 49.3044 32.1265C49.2467 32.0194 49.1313 31.9905 48.9582 31.9905H47.6844V32.5795H48.9788C49.156 32.5795 49.2632 32.5465 49.3044 32.4642Z" fill="white"/>
<path d="M54.4771 34.4412V33.6381H52.1564V33.2179H54.3823V32.4313H52.1564V32.0152H54.4482V31.208H51.0681V34.4412H54.4771Z" fill="white"/>
<path d="M62.8373 32.0194V31.208H58.975V32.0194H60.3393V34.4412H61.4688V32.0194H62.8373Z" fill="white"/>
<path d="M64.3224 31.208V34.4412H63.1888V31.208H64.3224Z" fill="white"/>
<path d="M70.5259 31.208V34.4412H69.3921V31.208H70.5259Z" fill="white"/>
<path d="M79.6963 31.208V33.1932C79.6963 34.0664 78.9047 34.4865 77.7053 34.4865C76.5844 34.4865 75.7802 34.0705 75.7802 33.0902V31.208H76.8975V33.0902C76.8975 33.4403 77.1981 33.6586 77.7508 33.6586C78.2784 33.6586 78.5915 33.4321 78.5915 33.0944V31.208H79.6963Z" fill="white"/>
<path d="M84.1463 33.4362C84.1463 32.872 83.7876 32.5754 82.9511 32.4848C82.8145 32.4683 82.4152 32.4271 82.1637 32.4065C81.5164 32.3365 81.3223 32.2994 81.3223 32.1347C81.3223 31.9864 81.475 31.9164 82.0565 31.9164C82.4684 31.9164 82.6996 31.9947 82.79 32.1141C82.8355 32.1718 82.8516 32.217 82.8558 32.2623H84.0433C84.0307 32.1635 83.9894 32.0235 83.9235 31.8999C83.7091 31.4881 83.1942 31.1586 82.0852 31.1586C80.8361 31.1586 80.1517 31.5992 80.1517 32.1759C80.1517 32.7319 80.5398 33.0573 81.5864 33.152L81.6537 33.158L81.7658 33.1682L82.2954 33.2179C82.8439 33.2756 82.9918 33.3126 82.9918 33.4857C82.9918 33.6463 82.8481 33.7328 82.2422 33.7328C81.7721 33.7328 81.4961 33.6628 81.3966 33.5433C81.3559 33.4939 81.3265 33.4197 81.3188 33.3703H80.1313C80.144 33.4527 80.1643 33.5845 80.2098 33.6916C80.4116 34.1447 80.9391 34.4906 82.1637 34.4906C83.4787 34.4906 84.1463 34.1199 84.1463 33.4362Z" fill="white"/>
<path fill-rule="evenodd" clip-rule="evenodd" d="M55.3212 35.6791C54.3943 35.6791 53.9067 36.1181 53.9067 36.7632C53.9067 37.4913 54.4184 37.8607 55.3212 37.8607C56.3152 37.8607 56.7331 37.4324 56.7331 36.7632C56.7331 36.0833 56.2616 35.6791 55.3212 35.6791ZM55.3212 37.3227C54.7935 37.3227 54.6408 37.1058 54.6408 36.7712C54.6408 36.442 54.8069 36.2251 55.3186 36.2251C55.8785 36.2251 56.0044 36.4687 56.0044 36.7712C56.0044 37.0925 55.8517 37.3227 55.3212 37.3227Z" fill="white"/>
<path d="M50.1664 37.1755C50.1664 36.8088 49.9333 36.616 49.3895 36.5571C49.3011 36.5464 49.0412 36.5197 48.8778 36.5063C48.4572 36.4607 48.3313 36.4366 48.3313 36.3296C48.3313 36.2332 48.4304 36.1877 48.8081 36.1877C49.076 36.1877 49.226 36.2385 49.285 36.3162C49.3144 36.3537 49.3252 36.3831 49.3279 36.4126H50.0994C50.0914 36.3483 50.0646 36.2573 50.0217 36.177C49.8824 35.9093 49.5475 35.6952 48.8269 35.6952C48.0152 35.6952 47.5705 35.9816 47.5705 36.3563C47.5705 36.7178 47.8222 36.9292 48.5027 36.9908C48.5965 36.9988 48.8215 37.0202 48.9635 37.0336C49.3198 37.071 49.4162 37.0952 49.4162 37.2076C49.4162 37.312 49.3225 37.3682 48.9287 37.3682C48.6233 37.3682 48.4438 37.3227 48.3795 37.2451C48.3527 37.2129 48.3339 37.1648 48.3286 37.1326H47.557C47.5651 37.1862 47.5784 37.2718 47.6079 37.3415C47.7392 37.6359 48.0821 37.8607 48.8778 37.8607C49.7324 37.8607 50.1664 37.6198 50.1664 37.1755Z" fill="white"/>
<path fill-rule="evenodd" clip-rule="evenodd" d="M44.8173 37.2343C44.8173 37.3788 44.7771 37.5207 44.6967 37.6144C44.5735 37.7643 44.3431 37.8285 44.0458 37.8285H42.1785V35.7272H43.9948C44.2842 35.7272 44.469 35.7968 44.5708 35.9012C44.6619 35.9922 44.7021 36.1127 44.7021 36.2492C44.7021 36.3857 44.67 36.4982 44.6003 36.5811C44.544 36.6507 44.4476 36.7042 44.3458 36.7177C44.4958 36.7364 44.6378 36.8113 44.7182 36.9157C44.7851 36.9933 44.8173 37.1111 44.8173 37.2343ZM43.9145 36.4982C43.9412 36.4687 43.9573 36.4258 43.9573 36.375C43.9573 36.3241 43.9412 36.2813 43.9064 36.2519C43.8689 36.217 43.7992 36.2037 43.6974 36.2037H42.8804V36.5463H43.7162C43.8073 36.5463 43.877 36.5329 43.9145 36.4982ZM43.7939 37.3521C43.9198 37.3521 43.9948 37.336 44.0377 37.2959C44.0645 37.2691 44.0752 37.2289 44.0752 37.1781C44.0752 37.1245 44.0618 37.0844 44.0296 37.0523C43.9895 37.0175 43.9198 37.0014 43.802 37.0014H42.8804V37.3521H43.7939Z" fill="white"/>
<path d="M47.3399 37.3066V37.8285H45.1244V35.7272H47.3211V36.2519H45.8316V36.5222H47.2783V37.0335H45.8316V37.3066H47.3399Z" fill="white"/>
<path d="M52.7733 35.7272V36.2546H51.8839V37.8285H51.1499V36.2546H50.2632V35.7272H52.7733Z" fill="white"/>
<path d="M59.1845 35.7272V36.2599H57.7567V36.557H59.1175V37.0844H57.7567V37.8285H57.036V35.7272H59.1845Z" fill="white"/>
<path d="M62.8144 36.2546V35.7272H60.3043V36.2546H61.191V37.8285H61.9251V36.2546H62.8144Z" fill="white"/>
<path d="M65.5532 35.7272V37.8285H64.8352V37.0656H63.7582V37.8285H63.0403V35.7272H63.7582V36.4928H64.8352V35.7272H65.5532Z" fill="white"/>
<path d="M68.1938 37.8285V37.3066H66.6855V37.0335H68.1322V36.5222H66.6855V36.2519H68.1751V35.7272H65.9783V37.8285H68.1938Z" fill="white"/>
<path d="M72.6353 35.7272H73.3289L72.5603 37.8285H71.7729C71.7729 37.8285 71.3519 36.5731 71.3491 36.5383C71.347 36.5731 70.9231 37.8285 70.9231 37.8285H70.1385L69.3508 35.7272H70.1301C70.1301 35.7272 70.5861 37.0495 70.5861 37.0817C70.5861 37.0495 71.0065 35.7272 71.0065 35.7272H71.7596C71.7596 35.7272 72.1827 37.0495 72.1827 37.0817C72.1827 37.0495 72.6353 35.7272 72.6353 35.7272Z" fill="white"/>
<path fill-rule="evenodd" clip-rule="evenodd" d="M74.7047 35.6791C73.7779 35.6791 73.2903 36.1181 73.2903 36.7632C73.2903 37.4913 73.8017 37.8607 74.7047 37.8607C75.6988 37.8607 76.1164 37.4324 76.1164 36.7632C76.1164 36.0833 75.6449 35.6791 74.7047 35.6791ZM74.7047 37.3227C74.1772 37.3227 74.0245 37.1058 74.0245 36.7712C74.0245 36.442 74.1905 36.2251 74.7019 36.2251C75.2624 36.2251 75.3878 36.4687 75.3878 36.7712C75.3878 37.0925 75.235 37.3227 74.7047 37.3227Z" fill="white"/>
<path fill-rule="evenodd" clip-rule="evenodd" d="M78.7694 35.9414C78.8654 36.0404 78.9109 36.1769 78.9109 36.367C78.9109 36.5303 78.871 36.6694 78.8037 36.7632C78.7288 36.8649 78.6139 36.9506 78.4717 36.9719L79.1064 37.8285H78.3085L77.7858 37.0871H77.135V37.8285H76.4197V35.7272H78.0941C78.4261 35.7272 78.6433 35.8075 78.7694 35.9414ZM78.1908 36.5436C78.209 36.5115 78.2146 36.4687 78.2146 36.4339C78.2146 36.3937 78.209 36.3509 78.1908 36.3241C78.1529 36.2546 78.078 36.2358 77.9652 36.2358H77.1378V36.6186H77.9785C78.0941 36.6186 78.1634 36.5972 78.1908 36.5436Z" fill="white"/>
<path d="M81.3433 37.8285V37.2691H80.0627V35.7272H79.3369V37.8285H81.3433Z" fill="white"/>
<path fill-rule="evenodd" clip-rule="evenodd" d="M84.1841 36.739C84.1841 37.0656 84.1518 37.2423 84.0559 37.4083C83.9109 37.6732 83.6243 37.8285 83.1178 37.8285H81.6284V35.7272H83.1017C83.6054 35.7272 83.9031 35.8691 84.0503 36.1127C84.1546 36.276 84.1841 36.4499 84.1841 36.739ZM82.9812 37.3119C83.2089 37.3119 83.3378 37.2583 83.4156 37.1406C83.4639 37.0683 83.4772 36.8997 83.4772 36.7525C83.4744 36.6186 83.4583 36.4767 83.4156 36.4125C83.3322 36.2867 83.2068 36.2412 82.9868 36.2412H82.3465V37.3119H82.9812Z" fill="white"/>
<path d="M55.4461 48.0483H54.336C54.336 48.0483 53.6116 50.1641 53.6116 50.2155C53.6116 50.1641 52.9344 48.0483 52.9344 48.0483H51.7299C51.7299 48.0483 51.0569 50.1641 51.0569 50.2155C51.0569 50.1641 50.3283 48.0483 50.3283 48.0483H49.0809L50.3411 51.4104H51.597C51.597 51.4104 52.2742 49.4017 52.2785 49.3461C52.2829 49.4017 52.9558 51.4104 52.9558 51.4104H54.2159L55.4461 48.0483Z" fill="white"/>
<path d="M56.9653 51.4104V48.0483H55.7865V51.4104H56.9653Z" fill="white"/>
<path d="M61.5501 48.0483V51.4104H60.4014L58.7341 49.5388V51.4104H57.6282V48.0483H58.8369L60.4528 49.8772V48.0483H61.5501Z" fill="white"/>
<path d="M66.142 51.4104V48.0483H65.0447V49.8772L63.4288 48.0483H62.22V51.4104H63.3259V49.5388L64.9933 51.4104H66.142Z" fill="white"/>
<path d="M70.357 50.5752V51.4104H66.8119V48.0483H70.3269V48.8878H67.9435V49.3204H70.2582V50.1384H67.9435V50.5752H70.357Z" fill="white"/>
<path fill-rule="evenodd" clip-rule="evenodd" d="M74.8876 49.0719C74.8876 48.7679 74.8147 48.5495 74.6606 48.391C74.4588 48.1769 74.1121 48.0483 73.5803 48.0483H70.9014V51.4104H72.0461V50.224H73.0878L73.9236 51.4104H75.2008L74.1849 50.0399C74.4119 50.0056 74.5962 49.8685 74.7167 49.7058C74.8231 49.5559 74.8876 49.3332 74.8876 49.0719ZM73.773 49.179C73.773 49.2347 73.7646 49.3032 73.7345 49.3546C73.6917 49.4403 73.5803 49.4745 73.3961 49.4745H72.0503V48.8621H73.3744C73.5544 48.8621 73.6749 48.892 73.7345 49.0034C73.7646 49.0463 73.773 49.1148 73.773 49.179Z" fill="white"/>
<path d="M52.0236 42.1168L51.5588 40.6873L51.0939 42.1168H49.5896L50.8066 43.0003L50.3418 44.4298L51.5588 43.5463L52.7758 44.4298L52.3109 43.0003L53.528 42.1168H52.0236Z" fill="white"/>
<path d="M56.9255 40.6864L57.3998 42.1159H58.9348L57.693 42.9995L58.1674 44.4289L56.9255 43.5455L55.6836 44.4289L56.158 42.9995L54.9161 42.1159H56.4511L56.9255 40.6864Z" fill="white"/>
<path d="M62.7237 42.1159L62.2494 40.6864L61.7751 42.1159H60.24L61.4819 42.9995L61.0075 44.4289L62.2494 43.5455L63.4912 44.4289L63.0169 42.9995L64.2588 42.1159H62.7237Z" fill="white"/>
<path d="M67.5736 40.6864L68.0479 42.1159H69.5829L68.3411 42.9995L68.8155 44.4289L67.5736 43.5455L66.3317 44.4289L66.8061 42.9995L65.5642 42.1159H67.0993L67.5736 40.6864Z" fill="white"/>
<path d="M73.4052 42.1159L72.94 40.6864L72.4748 42.1159H70.9707L72.1876 42.9995L71.7231 44.4289L72.94 43.5455L74.1569 44.4289L73.6924 42.9995L74.9093 42.1159H73.4052Z" fill="white"/>
<path d="M92.9215 25.3557C93.3664 24.2256 93.173 22.9259 92.7632 21.8329C92.3316 20.6829 91.5806 19.5358 90.4583 18.9309C90.4023 20.143 90.7729 21.3403 91.1778 22.4201C91.5421 23.3912 91.9884 24.4258 92.7261 25.2289C92.8395 25.8373 92.9264 26.4441 92.9874 27.048C92.7429 26.4101 92.3471 25.8287 91.8525 25.3611C91.2156 24.7588 90.2678 24.2941 89.3788 24.5689C89.6394 25.5511 90.2327 26.4927 90.9361 27.1533C91.4896 27.6731 92.2203 28.3393 93.0805 28.3655C93.1163 29.2546 93.096 30.1355 93.0224 31.0045C92.9012 30.3686 92.6413 29.7699 92.2651 29.324C91.7488 28.7112 90.9831 27.9627 90.0058 28.0879C90.059 29.082 90.4562 30.1006 91.009 30.866C91.4475 31.4742 92.0276 32.2495 92.8508 32.4497C92.7191 33.3034 92.5355 34.1429 92.3022 34.9644C92.3001 34.3354 92.1614 33.7179 91.8854 33.2227C91.4966 32.5244 90.8906 31.6533 89.9119 31.5852C89.7683 32.5605 89.963 33.6267 90.3554 34.4747C90.6685 35.1525 91.0867 36.0169 91.8483 36.3745C91.5281 37.2586 91.1498 38.1181 90.7154 38.9475C90.8682 38.2325 90.8619 37.4791 90.6818 36.8011C90.4331 35.8668 89.8166 34.8852 88.826 34.6005C88.4757 35.6321 88.5241 36.7832 88.7279 37.8317C88.8954 38.695 89.2239 39.7089 89.9609 40.2696C89.4789 41.0471 88.9458 41.7933 88.3636 42.5032C88.6768 41.807 88.8316 41.0455 88.7483 40.3483C88.6271 39.333 88.3419 38.2471 87.3044 37.706C86.7152 38.721 86.5786 39.8597 86.5289 40.9844C86.4882 41.8937 86.6192 43.0153 87.2518 43.755C86.5562 44.477 85.8066 45.1527 85.0058 45.7759C85.5229 45.1129 85.885 44.335 85.9614 43.5657C86.07 42.4786 86.0175 41.2821 85.0514 40.4843C84.2261 41.346 83.7329 42.615 83.4919 43.7172C83.2782 44.6917 83.0555 45.8452 83.5634 46.8043C82.5441 47.4694 81.4554 48.0554 80.3043 48.5517C81.1142 47.975 81.7769 47.1838 82.0929 46.3669C82.5069 45.2964 82.7626 44.0205 81.957 42.9483C80.8767 43.6395 80.083 44.8188 79.4574 45.8945C78.9207 46.8175 78.3652 48.0915 78.6412 49.1907C78.0037 49.4067 77.3501 49.5964 76.681 49.7582L76.721 49.9224C77.3921 49.7599 78.0485 49.5696 78.6881 49.3529C79.1365 50.6763 80.6049 51.1137 81.7923 51.3067C83.4842 51.5817 85.499 51.0489 86.9436 49.9753C86.1807 48.8988 84.6254 48.7896 83.4527 48.7072L83.4373 48.7061C82.1524 48.6159 80.7625 48.7364 79.4707 49.0719C80.9629 48.5042 82.3598 47.7902 83.6481 46.9509L83.6657 46.9789C84.3711 48.1242 85.7891 48.169 86.9016 48.0966C88.4113 47.9985 90.1536 47.0816 91.1617 45.8141C90.2131 44.9826 88.8127 45.2152 87.7268 45.3955L87.7212 45.3965C86.5099 45.5976 85.1866 46.0365 84.0755 46.7122C84.1813 46.629 84.2843 46.541 84.3851 46.4487C85.4654 45.679 86.4616 44.8181 87.366 43.8794C87.3786 43.8919 87.3913 43.9043 87.4039 43.9165C88.2838 44.7937 89.5609 44.5623 90.5585 44.2752C91.8966 43.8902 93.2837 42.7287 93.9485 41.3953C92.918 40.8185 91.6864 41.2937 90.7287 41.6697C89.6758 42.0827 88.5626 42.7436 87.7065 43.5862C87.7948 43.4749 87.8796 43.3585 87.9594 43.2381C88.7546 42.341 89.4705 41.3802 90.0996 40.3666L90.127 40.3835L90.134 40.3879C91.1281 41.0271 92.2546 40.5629 93.1471 40.1064C94.3584 39.487 95.3322 38.1256 95.7525 36.7868C94.6778 36.4429 93.6165 37.1179 92.7912 37.6525C91.8875 38.2375 90.9726 39.0719 90.3448 40.0288C90.3911 39.9344 90.4345 39.8378 90.4744 39.7395C91.0776 38.6879 91.5897 37.584 92.0045 36.4388L92.0262 36.4461L92.0297 36.4475C92.9341 36.7896 93.9408 36.2557 94.5973 35.6702C95.5094 34.856 96.1532 33.6042 96.3038 32.3812C95.3609 32.2591 94.4719 32.9882 93.8645 33.6101C93.1653 34.3263 92.5369 35.1728 92.1509 36.1132C92.1796 36.0106 92.2041 35.9063 92.2245 35.801C92.5754 34.7252 92.8417 33.6158 93.0168 32.4817L93.0434 32.4852C93.9962 32.6393 94.8775 31.9149 95.4043 31.2117C96.1455 30.2223 96.5273 28.8529 96.4313 27.6116C95.4793 27.6783 94.7535 28.5838 94.2834 29.3164C93.7384 30.1649 93.2865 31.1252 93.0889 32.1299C93.0953 32.0495 93.0988 31.9688 93.1002 31.8877C93.2452 30.7332 93.297 29.555 93.2494 28.3624C94.2225 28.3283 94.9433 27.4256 95.3146 26.625C95.845 25.48 95.9304 24.0326 95.5767 22.8128C94.6498 23.0727 94.1328 24.1349 93.8281 24.9525C93.4764 25.8953 93.2312 26.9237 93.2291 27.9459C93.1786 27.0883 93.0763 26.2238 92.9215 25.3557Z" fill="white"/>
</svg>
