<svg width="124" height="70" viewBox="0 0 124 70" fill="none" xmlns="http://www.w3.org/2000/svg">
<path d="M25.1865 32.3634C25.1609 32.9632 25.1482 33.7225 25.1482 34.6413C25.1482 35.5602 25.1609 36.3258 25.1865 36.9384C25.212 37.5382 25.2631 38.0167 25.3397 38.3741C25.4291 38.7314 25.5505 38.9802 25.7037 39.1206C25.8698 39.261 26.0869 39.3312 26.3551 39.3312C26.6233 39.3312 26.834 39.261 26.9873 39.1206C27.1533 38.9802 27.2747 38.7314 27.3513 38.3741C27.4407 38.0167 27.4982 37.5382 27.5237 36.9384C27.5493 36.3258 27.5621 35.5602 27.5621 34.6413C27.5621 33.7225 27.5493 32.9632 27.5237 32.3634C27.4982 31.7508 27.4407 31.2659 27.3513 30.9086C27.2747 30.5512 27.1533 30.3024 26.9873 30.162C26.834 30.0216 26.6233 29.9514 26.3551 29.9514C26.0869 29.9514 25.8698 30.0216 25.7037 30.162C25.5505 30.3024 25.4291 30.5512 25.3397 30.9086C25.2631 31.2659 25.212 31.7508 25.1865 32.3634Z" fill="white"/>
<path fill-rule="evenodd" clip-rule="evenodd" d="M25.8652 20.4214C21.2458 20.5201 17.574 24.329 17.6481 28.945L17.7392 34.6167L17.6481 40.2884C17.574 44.9046 21.2458 48.7134 25.8652 48.8121L31.5423 48.9335L37.2194 48.8121C41.8388 48.7134 45.5107 44.9046 45.4366 40.2884L45.3455 34.6167L45.4366 28.945C45.5107 24.329 41.8388 20.5201 37.2194 20.4214L31.5423 20.3L25.8652 20.4214ZM31.7385 41.8389L29.5928 43.6957L27.6387 41.5901C27.4854 41.6156 27.3321 41.6348 27.1789 41.6475C27.0384 41.673 26.8787 41.6858 26.6999 41.6858H26.3551C25.4483 41.6858 24.682 41.5646 24.0561 41.3221C23.4303 41.0796 22.9258 40.6776 22.5427 40.1161C22.1596 39.5419 21.8849 38.808 21.7189 37.9148C21.5529 37.0087 21.4699 35.9175 21.4699 34.6414C21.4699 33.3653 21.5529 32.2805 21.7189 31.3872C21.8849 30.4811 22.1596 29.7474 22.5427 29.1858C22.9258 28.6116 23.4303 28.1968 24.0561 27.9416C24.682 27.6736 25.4483 27.5396 26.3551 27.5396C27.2619 27.5396 28.0282 27.6736 28.654 27.9416C29.2798 28.1968 29.7844 28.6116 30.1675 29.1858C30.5507 29.7474 30.8253 30.4811 30.9913 31.3872C31.1574 32.2805 31.2404 33.3653 31.2404 34.6414C31.2404 35.9558 31.151 37.0661 30.9721 37.9722C30.7933 38.8783 30.4996 39.6184 30.0909 40.1927L31.7385 41.8389ZM37.7859 32.7271V31.9615C37.7859 31.183 37.7093 30.6534 37.556 30.3727C37.4028 30.0919 37.1537 29.9515 36.8088 29.9515C36.5406 29.9515 36.3235 30.0217 36.1575 30.1621C36.0042 30.3025 35.8829 30.5513 35.7935 30.9087C35.7168 31.266 35.6658 31.7509 35.6402 32.3635C35.6146 32.9633 35.6019 33.7226 35.6019 34.6414C35.6019 35.5603 35.6146 36.3259 35.6402 36.9385C35.6658 37.5383 35.7168 38.0168 35.7935 38.3742C35.8829 38.7315 36.0042 38.9803 36.1575 39.1207C36.3235 39.2611 36.5406 39.3313 36.8088 39.3313C37.0259 39.3313 37.2048 39.2803 37.3452 39.1781C37.4858 39.0633 37.5943 38.8783 37.6709 38.623C37.7476 38.3678 37.7986 38.0296 37.8242 37.6085C37.8625 37.1746 37.8817 36.6322 37.8817 35.9814H41.3301V36.996C41.3301 37.9531 41.2023 38.7379 40.9469 39.3504C40.6915 39.963 40.353 40.4479 39.9316 40.8052C39.5101 41.1498 39.0248 41.3795 38.4755 41.4944C37.9392 41.622 37.3836 41.6858 36.8088 41.6858C35.8126 41.6858 34.9953 41.5646 34.3566 41.3221C33.7181 41.0796 33.22 40.6776 32.8623 40.1161C32.5047 39.5419 32.2556 38.808 32.1152 37.9148C31.9875 37.0087 31.9236 35.9175 31.9236 34.6414C31.9236 33.3397 32.0002 32.2359 32.1535 31.3298C32.3195 30.4237 32.5941 29.6899 32.9773 29.1284C33.3604 28.5669 33.8649 28.1649 34.4907 27.9224C35.1165 27.6672 35.8892 27.5396 36.8088 27.5396C37.6135 27.5396 38.2967 27.6417 38.8587 27.8459C39.4207 28.0501 39.8741 28.3436 40.219 28.7264C40.5765 29.0965 40.832 29.5496 40.9852 30.0856C41.1513 30.6087 41.2343 31.2022 41.2343 31.8658V32.7271H37.7859Z" fill="white"/>
<path fill-rule="evenodd" clip-rule="evenodd" d="M62.1786 30.0555L65.3018 33.2941L68.4251 30.0555H73.8514L68.0109 35.6073L73.8514 41.1591H68.4251L65.3018 37.9123L62.1786 41.1591H56.7439L62.5845 35.6073L56.7439 30.0555H62.1786ZM61.8775 35.6073L55.5251 29.5691H62.3862L65.3018 32.5923L68.2174 29.5691H74.8336V29.5608H86.0469C88.611 29.5346 90.7813 31.6771 90.7463 34.2477C90.7456 35.1723 90.4955 36.0246 89.9946 36.7832C89.6177 37.3574 89.1399 37.8298 88.5675 38.1891L90.9585 41.2566V39.2672C90.9585 37.7086 92.1243 36.715 93.4652 36.056C94.8194 35.3907 96.528 34.975 97.9509 34.6388C97.9516 34.6386 97.9523 34.6384 97.953 34.6383L97.9691 34.6342C98.8462 34.4187 99.593 34.2352 100.125 34.0373C100.394 33.937 100.57 33.8462 100.671 33.7691C100.684 33.7593 100.694 33.7506 100.703 33.7431C100.673 33.7148 100.61 33.6726 100.486 33.624C100.196 33.5108 99.7023 33.4255 98.9541 33.4253C98.1548 33.4336 97.4752 33.4985 97.0114 33.6611C96.783 33.7412 96.645 33.8325 96.5673 33.9182C96.5014 33.9917 96.4622 34.079 96.4657 34.216L96.4776 34.7141H91.1323V34.2276C91.1323 33.229 91.3284 32.3941 91.7208 31.71C92.1152 31.0228 92.6897 30.521 93.3902 30.1611C94.7647 29.455 96.6583 29.2799 98.7698 29.2799C100.932 29.2799 102.727 29.5292 103.997 30.1709C104.641 30.4962 105.163 30.929 105.523 31.4918C105.883 32.0562 106.059 32.7205 106.059 33.4758C106.059 34.8737 105.215 35.764 104.18 36.3443C103.176 36.9077 101.911 37.2277 100.861 37.4837H105.877V41.6291H91.2486L91.2549 41.6374H85.3954L83.2993 38.9275H80.1502V41.6374H75.0613L75.0704 41.6456H68.2171L65.3018 38.615L62.3866 41.6456H55.5251L61.8775 35.6073ZM74.8336 41.4204V29.7943L68.7179 35.6073L74.8336 41.4204ZM83.5396 38.4411L85.6357 41.1509H90.258L87.8305 38.0362C87.9826 37.9659 88.1276 37.888 88.267 37.8029C88.798 37.478 89.2394 37.0463 89.5868 36.5161C90.0345 35.8386 90.258 35.0786 90.258 34.2442C90.2916 31.9474 88.3447 30.0225 86.0497 30.0472H75.3212V41.1509H79.6619V38.4411H83.5396ZM98.3061 37.9701C98.4581 37.7844 98.7334 37.6265 99.0991 37.4837C99.53 37.3151 100.085 37.1676 100.708 37.0201C102.846 36.4996 105.572 35.7891 105.572 33.4758C105.572 30.766 103.053 29.7663 98.7698 29.7663C94.7423 29.7663 91.8861 30.422 91.6381 33.7411C91.6262 33.8974 91.6199 34.0594 91.6199 34.2276H95.9781C95.9774 34.2093 95.9774 34.1912 95.9781 34.1735C96.0019 33.1865 97.3652 32.955 98.952 32.9388C100.501 32.9388 101.213 33.2858 101.213 33.7568C101.213 34.338 99.8389 34.6759 98.1127 35.1001L98.0658 35.1116C95.1991 35.7891 91.4461 36.7309 91.4461 39.2672V41.1426H105.389V37.9701H98.3061ZM100.731 33.7804C100.73 33.7806 100.728 33.7773 100.727 33.7702C100.731 33.7766 100.731 33.7802 100.731 33.7804ZM85.4213 34.2442C85.4213 33.9841 85.2167 33.7806 84.9561 33.7806H80.1502V34.6995H84.9561C85.0962 34.6995 85.1943 34.657 85.2819 34.5694C85.3821 34.4696 85.4213 34.3697 85.4213 34.2442ZM85.9089 34.2442C85.9089 33.7154 85.4864 33.2941 84.9561 33.2941H79.6619V35.1859H84.9561C85.2209 35.1859 85.4451 35.0951 85.6272 34.9134C85.8178 34.7233 85.9089 34.5003 85.9089 34.2442Z" fill="white"/>
<path d="M57.1457 49.1696H59.2249V46.325L61.308 49.1696H62.3476L64.4307 46.325V49.1696H66.5099V43.8374H63.9109L61.8278 46.5035L59.7487 43.8374H57.1457V49.1696Z" fill="white"/>
<path d="M70.8902 43.7065C68.8827 43.7105 67.24 44.2897 67.2479 46.3091V46.6979C67.24 48.7134 68.8827 49.2966 70.8902 49.3005C72.8938 49.2966 74.5366 48.7134 74.5289 46.6979V46.3091C74.5289 44.2937 72.898 43.7065 70.8902 43.7065ZM72.4496 46.567C72.4615 47.4399 71.7393 47.5985 70.8902 47.6104C70.0373 47.5985 69.3151 47.4399 69.327 46.567V46.4361C69.3151 45.5672 70.0373 45.4085 70.8902 45.3966C71.7393 45.4085 72.4615 45.5672 72.4496 46.4361V46.567Z" fill="white"/>
<path d="M80.3534 46.5116C80.3534 47.0471 80.048 47.4875 79.5085 47.4875H77.231V45.5355H79.5085C80.048 45.5355 80.3534 45.9719 80.3534 46.5116ZM75.1517 43.8455V49.1776H79.8973C81.3615 49.1975 82.4488 47.9596 82.4369 46.5116C82.4488 45.0555 81.3615 43.8256 79.8973 43.8455H75.1517Z" fill="white"/>
<path d="M88.2256 46.571C88.2376 47.4477 87.516 47.5985 86.6662 47.6104C85.8136 47.5985 85.0955 47.4477 85.1032 46.571V43.8374H83.024V46.7019C83.0162 48.7173 84.6668 49.2966 86.6662 49.3005C88.6663 49.2966 90.3168 48.7173 90.3091 46.7019V43.8374H88.2256V46.571Z" fill="white"/>
<path d="M91.2451 43.8374V49.1696H97.4871V47.4795H93.3243V43.8374H91.2451Z" fill="white"/>
<path d="M98.1968 49.1775H104.439V47.8088H100.276V47.1263H104.439V45.8925H100.276V45.2101H104.439V43.8453H98.1968V49.1775Z" fill="white"/>
<path d="M58.3428 23.524V22.4003H61.4246C61.5739 22.4003 61.7038 22.4542 61.8097 22.5671C61.9205 22.6751 61.9735 22.8075 61.9735 22.9645C61.9735 23.1167 61.9205 23.2491 61.8097 23.362C61.7038 23.47 61.5739 23.524 61.4246 23.524H58.3428ZM55.8198 20.4718V27.0668H58.3428V25.4573H62.0554C63.3892 25.477 64.5207 24.3238 64.5014 22.9645C64.5207 21.6004 63.3892 20.4571 62.0554 20.4718H55.8198Z" fill="white"/>
<path d="M69.5236 20.3C67.0872 20.3049 65.0937 21.0214 65.1033 23.5191V24C65.0937 26.4927 67.0872 27.214 69.5236 27.2189C71.9551 27.214 73.9489 26.4927 73.9391 24V23.5191C73.9391 21.0263 71.96 20.3 69.5236 20.3ZM71.4156 23.838C71.4303 24.9175 70.5539 25.1138 69.5236 25.1286C68.4884 25.1138 67.612 24.9175 67.6265 23.838V23.6761C67.612 22.6014 68.4884 22.4052 69.5236 22.3905C70.5539 22.4052 71.4303 22.6014 71.4156 23.6761V23.838Z" fill="white"/>
<path d="M83.7764 24.6477L82.2786 20.4718H79.4378L77.9358 24.6477L76.438 20.4718H73.5972L76.438 27.0668H79.4378L80.8585 23.7693L82.2786 27.0668H85.2784L88.1199 20.4718H85.2784L83.7764 24.6477Z" fill="white"/>
<path d="M88.3125 27.0668H95.8863V25.3739H90.8352V24.5298H95.8863V23.0038H90.8352V22.1598H95.8863V20.4718H88.3125V27.0668Z" fill="white"/>
<path d="M97.23 20.4668V27.0618H99.7528V25.4523H102.006L103.225 27.0618H105.911L104.501 25.2119C104.924 25.0107 105.266 24.7065 105.521 24.309C105.782 23.9067 105.911 23.4552 105.911 22.9596C105.931 21.5954 104.799 20.4521 103.466 20.4668H97.23ZM102.83 22.3953C103.138 22.3953 103.384 22.6456 103.384 22.9596C103.384 23.1117 103.331 23.2442 103.22 23.357C103.114 23.465 102.984 23.519 102.83 23.519H99.7528V22.3953H102.83Z" fill="white"/>
</svg>
