<svg width="124" height="70" viewBox="0 0 124 70" fill="none" xmlns="http://www.w3.org/2000/svg">
<path fill-rule="evenodd" clip-rule="evenodd" d="M32.9266 14.7H91.5821C102.802 14.7 111.898 23.7885 111.898 35C111.898 46.2114 102.802 55.3 91.5821 55.3H32.9266C21.7061 55.3 12.6102 46.2114 12.6102 35C12.6102 23.7885 21.7061 14.7 32.9266 14.7ZM32.9266 16.6645C22.792 16.6645 14.5763 24.8735 14.5763 35C14.5763 45.1264 22.792 53.3355 32.9266 53.3355H91.5821C101.716 53.3355 109.932 45.1264 109.932 35C109.932 24.8735 101.716 16.6645 91.5821 16.6645H32.9266Z" fill="white"/>
<path fill-rule="evenodd" clip-rule="evenodd" d="M96.3957 45.6118C97.871 42.9946 98.8455 39.2468 98.8455 35C98.8455 30.7532 97.871 27.0054 96.3957 24.3882C94.8852 21.71 93.1065 20.5936 91.5821 20.5936C90.0576 20.5936 88.2782 21.71 86.7685 24.3882C85.2931 27.0054 84.3186 30.7532 84.3186 35C84.3186 39.2468 85.2931 42.9946 86.7685 45.6118C88.2782 48.2901 90.0576 49.4065 91.5821 49.4065C93.1065 49.4065 94.8852 48.2901 96.3957 45.6118ZM91.5821 51.371C96.6794 51.371 100.812 44.0415 100.812 35C100.812 25.9586 96.6794 18.629 91.5821 18.629C86.4847 18.629 82.3521 25.9586 82.3521 35C82.3521 44.0415 86.4847 51.371 91.5821 51.371Z" fill="white"/>
<path fill-rule="evenodd" clip-rule="evenodd" d="M90.5992 49.843V19.8296H92.5649V49.843H90.5992Z" fill="white"/>
<path d="M62.1611 27.618C62.5846 27.6121 62.9447 27.533 62.9388 27.098V27.0328C62.9447 26.5998 62.5846 26.5207 62.1611 26.5148C61.7357 26.5207 61.3755 26.5998 61.3815 27.0328V27.098C61.3755 27.533 61.7357 27.6121 62.1611 27.618Z" fill="white"/>
<path d="M46.4515 26.5167C46.5782 26.5167 46.6791 26.6175 46.6791 26.7441C46.6791 26.8054 46.6573 26.8587 46.6118 26.9042C46.5682 26.9477 46.5148 26.9695 46.4515 26.9695H45.1871V26.5167H46.4515Z" fill="white"/>
<path d="M53.7964 26.5109L54.1603 27.2958H53.4307L53.7964 26.5109Z" fill="white"/>
<path d="M70.4062 27.2958L70.0423 26.5109L69.6765 27.2958H70.4062Z" fill="white"/>
<path d="M44.1744 43.0398L43.6366 41.8795L43.0959 43.0398H44.1744Z" fill="white"/>
<path d="M56.2532 43.4257C56.651 43.4257 56.8763 43.1012 56.8763 42.7066C56.8763 42.3092 56.651 41.9877 56.2532 41.9877H54.5742V43.4257H56.2532Z" fill="white"/>
<path d="M61.129 41.8795L61.6668 43.0398H60.5883L61.129 41.8795Z" fill="white"/>
<path d="M68.0065 42.2244C68.0065 42.0374 67.8574 41.8883 67.6702 41.8883H65.801V42.5576H67.6702C67.7638 42.5576 67.8427 42.5255 67.9071 42.4612C67.9744 42.394 68.0065 42.315 68.0065 42.2244Z" fill="white"/>
<path d="M73.8543 42.7066C73.8543 43.1012 73.6287 43.4257 73.2308 43.4257H71.5515V41.9877H73.2308C73.6287 41.9877 73.8543 42.3092 73.8543 42.7066Z" fill="white"/>
<path d="M35.1175 30.8826L37.0683 35.383L39.1147 30.8826H42.3565V38.3833H39.9276V34.332L38.1489 38.3833H35.9685L34.209 34.332V38.3833H31.7705V30.8826H35.1175Z" fill="white"/>
<path d="M52.3089 38.3833V36.52H46.925V35.5454H52.089V33.7204H46.925V32.7554H52.242V30.8826H44.4005V38.3833H52.3089Z" fill="white"/>
<path d="M58.0379 38.498C56.4409 38.498 55.1118 38.0202 54.3659 37.0551C53.926 36.4914 53.6582 35.641 53.6582 34.6472C53.6582 33.7491 53.8877 32.9464 54.385 32.3063C55.1404 31.3698 56.5079 30.7488 58.5448 30.7488C60.8876 30.7488 62.2647 31.4654 62.8576 32.6694C62.942 32.8441 63.0036 33.0608 63.0401 33.2568C63.0614 33.3716 63.074 33.4794 63.0775 33.5676H60.6008C60.5721 33.4338 60.4382 33.2331 60.2661 33.0898C59.9983 32.8509 59.4246 32.6598 58.5926 32.6598C57.665 32.6598 57.0338 32.8414 56.6609 33.2618C56.4027 33.558 56.2688 34.0071 56.2688 34.6664C56.2688 35.297 56.4027 35.7174 56.6322 36.0137C56.9765 36.415 57.6172 36.6729 58.6117 36.6729C59.568 36.6729 60.3044 36.3863 60.5816 36.0614C60.6294 36.0063 60.673 35.9371 60.7096 35.8657C60.7682 35.7514 60.809 35.6314 60.8207 35.555H58.1527V33.9402H63.1444V38.3833H61.0885L61.0215 37.6571C60.9316 37.7315 60.8341 37.8022 60.7288 37.8686C60.1163 38.2546 59.2372 38.498 58.0379 38.498Z" fill="white"/>
<path d="M56.5798 34.6664C56.5798 34.0429 56.7074 33.6823 56.8946 33.467C57.1762 33.1503 57.6899 32.9706 58.5926 32.9706C59.3953 32.9706 59.8756 33.158 60.0589 33.3216L60.0629 33.3251L60.067 33.3286C60.1301 33.3811 60.1877 33.4457 60.2313 33.5088C60.2744 33.5711 60.2916 33.6144 60.2959 33.6295H57.8418V35.8658H60.3399C60.2504 35.9668 60.0584 36.0929 59.7533 36.1942C59.4496 36.295 59.0599 36.3622 58.6117 36.3622C57.6668 36.3622 57.1354 36.1179 56.8734 35.8173C56.7022 35.593 56.5798 35.249 56.5798 34.6664Z" fill="white"/>
<path d="M68.9287 35.0054L69.6412 33.6462L70.3143 35.0054H68.9287Z" fill="white"/>
<path fill-rule="evenodd" clip-rule="evenodd" d="M71.6279 36.9978L72.2878 38.3833H75.0515L71.2643 30.8826H68.1757L64.1689 38.3833H66.8752L67.5732 36.9978H71.6279ZM68.4147 35.3161L69.3615 33.5102L69.6484 32.8223L69.9161 33.5006L70.8152 35.3161H68.4147Z" fill="white"/>
<path fill-rule="evenodd" clip-rule="evenodd" d="M32.9266 51.3709C27.7651 51.3709 23.161 48.9861 20.1579 45.2591H28.7759V44.1677H19.3505C17.9443 42.0929 17.0022 39.6787 16.6726 37.0736H28.7759V35.9823H16.5714C16.5521 35.6573 16.5424 35.3297 16.5424 35C16.5424 32.8393 16.9612 30.7766 17.7223 28.8881H28.7759V27.7967H18.2095C19.3674 25.4393 21.0759 23.4007 23.1676 21.8486H81.8232C77.8027 24.8319 75.198 29.6119 75.198 35C75.198 38.3968 76.2334 41.552 78.0058 44.1677H76.9998V45.2591H78.8129C81.7847 48.9466 86.323 51.3202 91.4182 51.3701V51.3709H32.9266ZM60.3446 26.9695C60.3406 25.9631 61.1598 25.6744 62.1611 25.6725C63.1623 25.6725 63.9756 25.9651 63.9756 26.9695V27.1632C63.9796 28.1677 63.1604 28.4583 62.1611 28.4603C61.1598 28.4583 60.3406 28.1677 60.3446 27.1632V26.9695ZM31.0546 28.395V25.7377H32.0915V28.395H31.0546ZM34.0683 25.7377L35.2358 27.1455V25.7377H36.2746V28.395H35.1071L33.6785 26.7718V28.395H32.6416V25.7377H34.0683ZM38.9044 28.399V26.5839H40.1372V25.7417H36.6348V26.5839H37.8676V28.399H38.9044ZM43.5981 28.399H40.4855V25.7417H43.5981V26.4218H41.5224V26.7619H43.5981V27.3768H41.5224V27.7169H43.5981V28.399ZM44.1502 25.7397V28.397H45.1871V27.7485H46.1132L46.6138 28.397H47.718L47.1382 27.6516C47.3123 27.5706 47.4528 27.4479 47.5577 27.2878C47.6645 27.1257 47.718 26.9438 47.718 26.7441C47.7259 26.1944 47.2608 25.7338 46.7127 25.7397H44.1502ZM49.4672 25.7377L50.6347 27.1455V25.7377H51.6736V28.395H50.5061L49.0774 26.7718V28.395H48.0405V25.7377H49.4672ZM51.7527 28.399H52.9202L53.13 27.9442H54.4617L54.6714 28.399H55.8389L54.4122 25.7417H53.1794L51.7527 28.399ZM57.4219 26.5839V28.399H56.3851V26.5839H55.1523V25.7417H58.6547V26.5839H57.4219ZM59.0029 25.7377V28.395H60.0399V25.7377H59.0029ZM66.8805 27.1455L65.713 25.7377H64.2863V28.395H65.3232V26.7718L66.7519 28.395H67.9194V25.7377H66.8805V27.1455ZM69.166 28.399H67.9986L69.4253 25.7417H70.6583L72.0847 28.399H70.9175L70.7074 27.9442H69.3758L69.166 28.399ZM72.1659 25.7377V28.395H75.2785V27.5527H73.2028V25.7377H72.1659ZM32.6794 42.0314C32.6794 41.7188 33.2644 41.6486 33.7413 41.6486C34.221 41.6486 34.6275 41.7216 34.8031 42.0314H36.409C36.2627 40.8039 35.119 40.6489 33.7413 40.6402C32.3606 40.6402 31.0735 40.9091 31.0735 42.0314C31.0706 43.0115 32.6057 43.0892 33.7022 43.1447L33.7091 43.1451C34.3263 43.1743 34.8031 43.2006 34.8031 43.373C34.8031 43.677 34.2181 43.7559 33.7413 43.7559C33.2615 43.7559 32.8549 43.677 32.6794 43.373H31.0735C31.2198 44.5918 32.3635 44.7584 33.7413 44.7614C35.1219 44.7614 36.409 44.4954 36.409 43.373C36.4119 42.3901 34.8767 42.3124 33.7802 42.2568L33.7734 42.2565C33.1562 42.2273 32.6794 42.2039 32.6794 42.0314ZM39.811 44.6707V41.9876H41.6333V40.7425H36.4558V41.9876H38.2782V44.6707H39.811ZM42.3412 44.6707H40.6153L42.7244 40.7425H44.5468L46.6558 44.6707H44.93L44.6199 43.9985H42.6513L42.3412 44.6707ZM50.6107 42.8177L48.8848 40.7367H46.7758V44.6649H48.3085V42.2653L50.4205 44.6649H52.1464V40.7367H50.6107V42.8177ZM53.0414 44.6707V40.7425H56.54C57.6193 40.7279 58.4208 41.634 58.412 42.7066C58.4208 43.7735 57.6193 44.6854 56.54 44.6707H53.0414ZM58.1078 44.6707H59.8337L60.1437 43.9985H62.1123L62.4224 44.6707H64.1482L62.0393 40.7425H60.2169L58.1078 44.6707ZM64.2682 44.6679V40.7396H68.0563C68.8666 40.7309 69.5539 41.4118 69.5422 42.2244C69.5422 42.5196 69.4633 42.7885 69.3053 43.0281C69.1503 43.2649 68.9426 43.4461 68.6852 43.5659L69.5422 44.6679H67.91L67.17 43.7091H65.801V44.6679H64.2682ZM70.0191 40.7425V44.6707H73.5173C74.5969 44.6854 75.3983 43.7735 75.3899 42.7066C75.3983 41.634 74.5969 40.7279 73.5173 40.7425H70.0191ZM39.6166 38.694H42.6675V30.5718H38.9144L37.0751 34.6168L35.3217 30.5718H31.4596V38.694H34.52V35.8285L35.7646 38.694H38.3521L39.6166 35.8138V38.694ZM44.0895 38.694H52.6199V36.2093H47.236V35.8561H52.4V33.4097H47.236V33.0661H52.553V30.5718H44.0895V38.694ZM60.8049 38.694H63.4555V33.6294H63.3913L63.3883 33.5551C63.3773 33.2814 63.2932 32.8561 63.1377 32.5343L63.1372 32.5332L63.1366 32.5322C62.4677 31.1738 60.9407 30.4381 58.5448 30.4381C56.4486 30.4381 54.9762 31.0783 54.1429 32.1113L54.1411 32.1134L54.1393 32.1157C53.5908 32.8219 53.3473 33.6961 53.3473 34.6472C53.3473 35.6911 53.6277 36.6142 54.1202 37.2457C54.9481 38.3162 56.3901 38.8087 58.038 38.8087C59.1964 38.8087 60.0959 38.5888 60.7604 38.2118L60.8049 38.694ZM67.0668 38.694L67.7648 37.3085H71.4317L72.091 38.694H75.5567L71.4563 30.5718H67.9892L63.6504 38.694H67.0668ZM75.5251 48.697H31.0151V47.6055H75.5251V48.697Z" fill="white"/>
<path d="M83.4975 20.7572C85.8388 19.4278 88.5395 18.658 91.4181 18.6298V18.629H32.9266C29.9868 18.629 27.2278 19.4026 24.8425 20.7572H83.4975Z" fill="white"/>
<path d="M91.5821 49.4064C99.5447 49.4064 106 42.9564 106 35C106 27.0435 99.5447 20.5935 91.5821 20.5935C86.2452 20.5935 81.5857 23.4907 79.0924 27.7968H76.9998V28.8882H78.5221C77.6506 30.7436 77.1637 32.8149 77.1637 35C77.1637 38.4828 78.4009 41.6769 80.4592 44.1678H78.0058C76.2334 41.5521 75.198 38.3968 75.198 35C75.198 25.9585 82.5329 18.629 91.5821 18.629C100.631 18.629 107.966 25.9585 107.966 35C107.966 44.0414 100.631 51.371 91.5821 51.371C86.4203 51.371 81.8162 48.9861 78.8129 45.2591H81.4596C84.0629 47.8237 87.6372 49.4064 91.5821 49.4064Z" fill="white"/>
<path d="M95.9109 44.1677H78.857V42.2032H96.6801C96.4524 42.9072 96.1939 43.5643 95.9109 44.1677Z" fill="white"/>
<path d="M97.1081 44.1677H104.416V42.2032H97.8255C97.6139 42.8976 97.3729 43.5542 97.1081 44.1677Z" fill="white"/>
<path d="M97.7351 35.9823H76.1808V34.0177H97.7351C97.747 34.3415 97.7533 34.669 97.7533 35C97.7533 35.331 97.747 35.6586 97.7351 35.9823Z" fill="white"/>
<path d="M98.828 35.9823H107.011V34.0177H98.828C98.8399 34.3419 98.8455 34.6695 98.8455 35C98.8455 35.3306 98.8399 35.6581 98.828 35.9823Z" fill="white"/>
<path d="M96.6808 27.7968H78.857V25.8323H95.9109C96.1939 26.4357 96.4524 27.0928 96.6808 27.7968Z" fill="white"/>
<path d="M97.8255 27.7968H104.416V25.8323H97.1081C97.3729 26.4458 97.6139 27.1024 97.8255 27.7968Z" fill="white"/>
</svg>
